0
SECTION
2
HEADER
9
$INSUNITS
70
4
9
$ACADVER
1
AC1014
9
$HANDSEED
5
FFFF
0
ENDSEC
0
SECTION
2
TABLES
0
TABLE
2
VPORT
5
8
100
AcDbSymbolTable
0
ENDTAB
0
TABLE
2
LTYPE
5
5
100
AcDbSymbolTable
0
LTYPE
5
14
100
AcDbSymbolTableRecord
100
AcDbLinetypeTableRecord
2
BYBLOCK
70
0
0
LTYPE
5
15
100
AcDbSymbolTableRecord
100
AcDbLinetypeTableRecord
2
BYLAYER
70
0
0
LTYPE
5
16
100
AcDbSymbolTableRecord
100
AcDbLinetypeTableRecord
2
DASHED
70
0
3
Dashed __ __ __ __ __ __ __ __ __ __ __ __ __ _
72
65
73
2
40
0.75
49
0.5
74
0
49
-0.25
74
0
0
ENDTAB
0
TABLE
2
LAYER
5
2
100
AcDbSymbolTable
70
2
0
LAYER
5
50
100
AcDbSymbolTableRecord
100
AcDbLayerTableRecord
2
0
70
0
62
7
6
CONTINUOUS
0
ENDTAB
0
TABLE
2
STYLE
5
3
100
AcDbSymbolTable
70
1
0
STYLE
5
11
100
AcDbSymbolTableRecord
100
AcDbTextStyleTableRecord
2
STANDARD
70
0
0
ENDTAB
0
TABLE
2
VIEW
5
6
100
AcDbSymbolTable
70
0
0
ENDTAB
0
TABLE
2
UCS
5
7
100
AcDbSymbolTable
70
0
0
ENDTAB
0
TABLE
2
APPID
5
9
100
AcDbSymbolTable
70
2
0
APPID
5
12
100
AcDbSymbolTableRecord
100
AcDbRegAppTableRecord
2
ACAD
70
0
0
ENDTAB
0
TABLE
2
DIMSTYLE
5
A
100
AcDbSymbolTable
70
1
0
ENDTAB
0
TABLE
2
BLOCK_RECORD
5
1
100
AcDbSymbolTable
70
1
0
BLOCK_RECORD
5
1F
100
AcDbSymbolTableRecord
100
AcDbBlockTableRecord
2
*MODEL_SPACE
0
BLOCK_RECORD
5
1B
100
AcDbSymbolTableRecord
100
AcDbBlockTableRecord
2
*PAPER_SPACE
0
ENDTAB
0
ENDSEC
0
SECTION
2
BLOCKS
0
BLOCK
5
20
100
AcDbEntity
100
AcDbBlockBegin
2
*MODEL_SPACE
0
ENDBLK
5
21
100
AcDbEntity
100
AcDbBlockEnd
0
BLOCK
5
1C
100
AcDbEntity
100
AcDbBlockBegin
2
*PAPER_SPACE
0
ENDBLK
5
1D
100
AcDbEntity
100
AcDbBlockEnd
0
ENDSEC
0
SECTION
2
ENTITIES
0
POINT
5
100
100
AcDbEntity
8
0
100
AcDbPoint
10
0
20
0
30
0
0
LINE
5
101
100
AcDbEntity
8
0
100
AcDbLine
10
0
20
0
30
0
11
-150
21
0
31
0
0
LINE
5
102
100
AcDbEntity
8
0
100
AcDbLine
10
-150
20
0
30
0
11
-150
21
-300
31
0
0
LINE
5
103
100
AcDbEntity
8
0
100
AcDbLine
10
-150
20
-300
30
0
11
-1.2325951644078309e-31
21
-300
31
0
0
LINE
5
104
100
AcDbEntity
8
0
100
AcDbLine
10
-1.2325951644078309e-31
20
-300
30
0
11
0
21
0
31
0
0
LINE
5
105
100
AcDbEntity
8
0
100
AcDbLine
10
0
20
0
30
0
11
75
21
0
31
0
6
DASHED
0
LINE
5
106
100
AcDbEntity
8
0
100
AcDbLine
10
75
20
0
30
0
11
75
21
-300
31
0
0
LINE
5
107
100
AcDbEntity
8
0
100
AcDbLine
10
75
20
-300
30
0
11
0
21
-300
31
0
6
DASHED
0
LINE
5
108
100
AcDbEntity
8
0
100
AcDbLine
10
0
20
-300
30
0
11
0
21
0
31
0
0
LINE
5
109
100
AcDbEntity
8
0
100
AcDbLine
10
-150
20
0
30
0
11
-225
21
0
31
0
6
DASHED
0
LINE
5
110
100
AcDbEntity
8
0
100
AcDbLine
10
-225
20
0
30
0
11
-225
21
-300
31
0
0
LINE
5
111
100
AcDbEntity
8
0
100
AcDbLine
10
-225
20
-300
30
0
11
-150
21
-300
31
0
6
DASHED
0
LINE
5
112
100
AcDbEntity
8
0
100
AcDbLine
10
-150
20
-300
30
0
11
-150
21
0
31
0
0
LINE
5
113
100
AcDbEntity
8
0
100
AcDbLine
10
-150
20
0
30
0
11
0
21
0
31
0
0
LINE
5
114
100
AcDbEntity
8
0
100
AcDbLine
10
0
20
0
30
0
11
0
21
75
31
0
6
DASHED
0
LINE
5
115
100
AcDbEntity
8
0
100
AcDbLine
10
0
20
75
30
0
11
-150
21
75
31
0
0
LINE
5
116
100
AcDbEntity
8
0
100
AcDbLine
10
-150
20
75
30
0
11
-150
21
0
31
0
6
DASHED
0
LINE
5
117
100
AcDbEntity
8
0
100
AcDbLine
10
-150
20
-300
30
0
11
0
21
-300
31
0
0
LINE
5
118
100
AcDbEntity
8
0
100
AcDbLine
10
0
20
-300
30
0
11
0
21
-375
31
0
6
DASHED
0
LINE
5
119
100
AcDbEntity
8
0
100
AcDbLine
10
0
20
-375
30
0
11
-150
21
-375
31
0
0
LINE
5
120
100
AcDbEntity
8
0
100
AcDbLine
10
-150
20
-375
30
0
11
-150
21
-300
31
0
6
DASHED
0
LINE
5
121
100
AcDbEntity
8
0
100
AcDbLine
10
7.5
20
0
30
0
11
7.5
21
4
31
0
0
LINE
5
122
100
AcDbEntity
8
0
100
AcDbLine
10
7.5
20
4
30
0
11
0
21
4
31
0
0
LINE
5
123
100
AcDbEntity
8
0
100
AcDbLine
10
0
20
4
30
0
11
0
21
0
31
0
0
LINE
5
124
100
AcDbEntity
8
0
100
AcDbLine
10
7.5
20
0
30
0
11
15
21
0
31
0
0
LINE
5
125
100
AcDbEntity
8
0
100
AcDbLine
10
22.5
20
0
30
0
11
30
21
0
31
0
0
LINE
5
126
100
AcDbEntity
8
0
100
AcDbLine
10
22.5
20
0
30
0
11
22.5
21
4
31
0
0
LINE
5
127
100
AcDbEntity
8
0
100
AcDbLine
10
22.5
20
4
30
0
11
15
21
4
31
0
0
LINE
5
128
100
AcDbEntity
8
0
100
AcDbLine
10
15
20
4
30
0
11
15
21
0
31
0
0
LINE
5
129
100
AcDbEntity
8
0
100
AcDbLine
10
37.5
20
0
30
0
11
45
21
0
31
0
0
LINE
5
130
100
AcDbEntity
8
0
100
AcDbLine
10
37.5
20
0
30
0
11
37.5
21
4
31
0
0
LINE
5
131
100
AcDbEntity
8
0
100
AcDbLine
10
37.5
20
4
30
0
11
30
21
4
31
0
0
LINE
5
132
100
AcDbEntity
8
0
100
AcDbLine
10
30
20
4
30
0
11
30
21
0
31
0
0
LINE
5
133
100
AcDbEntity
8
0
100
AcDbLine
10
52.5
20
0
30
0
11
60
21
0
31
0
0
LINE
5
134
100
AcDbEntity
8
0
100
AcDbLine
10
52.5
20
0
30
0
11
52.5
21
4
31
0
0
LINE
5
135
100
AcDbEntity
8
0
100
AcDbLine
10
52.5
20
4
30
0
11
45
21
4
31
0
0
LINE
5
136
100
AcDbEntity
8
0
100
AcDbLine
10
45
20
4
30
0
11
45
21
0
31
0
0
LINE
5
137
100
AcDbEntity
8
0
100
AcDbLine
10
67.5
20
0
30
0
11
75
21
0
31
0
0
LINE
5
138
100
AcDbEntity
8
0
100
AcDbLine
10
67.5
20
0
30
0
11
67.5
21
4
31
0
0
LINE
5
139
100
AcDbEntity
8
0
100
AcDbLine
10
67.5
20
4
30
0
11
60
21
4
31
0
0
LINE
5
140
100
AcDbEntity
8
0
100
AcDbLine
10
60
20
4
30
0
11
60
21
0
31
0
0
LINE
5
141
100
AcDbEntity
8
0
100
AcDbLine
10
0
20
-150
30
0
11
75
21
-150
31
0
6
DASHED
0
LINE
5
142
100
AcDbEntity
8
0
100
AcDbLine
10
67.5
20
-300
30
0
11
75
21
-300
31
0
0
LINE
5
143
100
AcDbEntity
8
0
100
AcDbLine
10
67.5
20
-300
30
0
11
67.5
21
-304
31
0
0
LINE
5
144
100
AcDbEntity
8
0
100
AcDbLine
10
52.5
20
-300
30
0
11
60
21
-300
31
0
0
LINE
5
145
100
AcDbEntity
8
0
100
AcDbLine
10
52.5
20
-300
30
0
11
52.5
21
-304
31
0
0
LINE
5
146
100
AcDbEntity
8
0
100
AcDbLine
10
52.5
20
-304
30
0
11
45
21
-304
31
0
0
LINE
5
147
100
AcDbEntity
8
0
100
AcDbLine
10
60
20
-304
30
0
11
60
21
-300
31
0
0
LINE
5
148
100
AcDbEntity
8
0
100
AcDbLine
10
67.5
20
-304
30
0
11
60
21
-304
31
0
0
LINE
5
149
100
AcDbEntity
8
0
100
AcDbLine
10
37.5
20
-304
30
0
11
30
21
-304
31
0
0
LINE
5
150
100
AcDbEntity
8
0
100
AcDbLine
10
22.5
20
-304
30
0
11
15
21
-304
31
0
0
LINE
5
151
100
AcDbEntity
8
0
100
AcDbLine
10
7.5
20
-304
30
0
11
0
21
-304
31
0
0
LINE
5
152
100
AcDbEntity
8
0
100
AcDbLine
10
7.5
20
-300
30
0
11
7.5
21
-304
31
0
0
LINE
5
153
100
AcDbEntity
8
0
100
AcDbLine
10
15
20
-304
30
0
11
15
21
-300
31
0
0
LINE
5
154
100
AcDbEntity
8
0
100
AcDbLine
10
22.5
20
-300
30
0
11
22.5
21
-304
31
0
0
LINE
5
155
100
AcDbEntity
8
0
100
AcDbLine
10
30
20
-304
30
0
11
30
21
-300
31
0
0
LINE
5
156
100
AcDbEntity
8
0
100
AcDbLine
10
22.5
20
-300
30
0
11
30
21
-300
31
0
0
LINE
5
157
100
AcDbEntity
8
0
100
AcDbLine
10
7.5
20
-300
30
0
11
15
21
-300
31
0
0
LINE
5
158
100
AcDbEntity
8
0
100
AcDbLine
10
0
20
-304
30
0
11
0
21
-300
31
0
0
LINE
5
159
100
AcDbEntity
8
0
100
AcDbLine
10
37.5
20
-300
30
0
11
37.5
21
-304
31
0
0
LINE
5
160
100
AcDbEntity
8
0
100
AcDbLine
10
37.5
20
-300
30
0
11
45
21
-300
31
0
0
LINE
5
161
100
AcDbEntity
8
0
100
AcDbLine
10
45
20
-304
30
0
11
45
21
-300
31
0
0
LINE
5
162
100
AcDbEntity
8
0
100
AcDbLine
10
-75
20
-300
30
0
11
-75
21
0
31
0
0
LINE
5
163
100
AcDbEntity
8
0
100
AcDbLine
10
-217.5
20
-300
30
0
11
-225
21
-300
31
0
0
LINE
5
164
100
AcDbEntity
8
0
100
AcDbLine
10
-217.5
20
-300
30
0
11
-217.5
21
-304
31
0
0
LINE
5
165
100
AcDbEntity
8
0
100
AcDbLine
10
-202.5
20
-300
30
0
11
-202.5
21
-304
31
0
0
LINE
5
166
100
AcDbEntity
8
0
100
AcDbLine
10
-195
20
-304
30
0
11
-195
21
-300
31
0
0
LINE
5
167
100
AcDbEntity
8
0
100
AcDbLine
10
-210
20
-304
30
0
11
-210
21
-300
31
0
0
LINE
5
168
100
AcDbEntity
8
0
100
AcDbLine
10
-187.5
20
-304
30
0
11
-180
21
-304
31
0
0
LINE
5
169
100
AcDbEntity
8
0
100
AcDbLine
10
-217.5
20
-304
30
0
11
-210
21
-304
31
0
0
LINE
5
170
100
AcDbEntity
8
0
100
AcDbLine
10
-187.5
20
-300
30
0
11
-195
21
-300
31
0
0
LINE
5
171
100
AcDbEntity
8
0
100
AcDbLine
10
-202.5
20
-300
30
0
11
-210
21
-300
31
0
0
LINE
5
172
100
AcDbEntity
8
0
100
AcDbLine
10
-187.5
20
-300
30
0
11
-187.5
21
-304
31
0
0
LINE
5
173
100
AcDbEntity
8
0
100
AcDbLine
10
-202.5
20
-304
30
0
11
-195
21
-304
31
0
0
LINE
5
174
100
AcDbEntity
8
0
100
AcDbLine
10
-180
20
-304
30
0
11
-180
21
-300
31
0
0
LINE
5
175
100
AcDbEntity
8
0
100
AcDbLine
10
-172.5
20
-300
30
0
11
-180
21
-300
31
0
0
LINE
5
176
100
AcDbEntity
8
0
100
AcDbLine
10
-172.5
20
-300
30
0
11
-172.5
21
-304
31
0
0
LINE
5
177
100
AcDbEntity
8
0
100
AcDbLine
10
-172.5
20
-304
30
0
11
-165
21
-304
31
0
0
LINE
5
178
100
AcDbEntity
8
0
100
AcDbLine
10
-165
20
-304
30
0
11
-165
21
-300
31
0
0
LINE
5
179
100
AcDbEntity
8
0
100
AcDbLine
10
-157.5
20
-300
30
0
11
-165
21
-300
31
0
0
LINE
5
180
100
AcDbEntity
8
0
100
AcDbLine
10
-157.5
20
-300
30
0
11
-157.5
21
-304
31
0
0
LINE
5
181
100
AcDbEntity
8
0
100
AcDbLine
10
-157.5
20
-304
30
0
11
-150
21
-304
31
0
0
LINE
5
182
100
AcDbEntity
8
0
100
AcDbLine
10
-150
20
-304
30
0
11
-150
21
-300
31
0
0
LINE
5
183
100
AcDbEntity
8
0
100
AcDbLine
10
-217.5
20
0
30
0
11
-225
21
0
31
0
0
LINE
5
184
100
AcDbEntity
8
0
100
AcDbLine
10
-217.5
20
0
30
0
11
-217.5
21
3.9999999999999858
31
0
0
LINE
5
185
100
AcDbEntity
8
0
100
AcDbLine
10
-217.5
20
3.9999999999999858
30
0
11
-210
21
3.9999999999999858
31
0
0
LINE
5
186
100
AcDbEntity
8
0
100
AcDbLine
10
-210
20
3.9999999999999858
30
0
11
-210
21
0
31
0
0
LINE
5
187
100
AcDbEntity
8
0
100
AcDbLine
10
-202.5
20
0
30
0
11
-210
21
0
31
0
0
LINE
5
188
100
AcDbEntity
8
0
100
AcDbLine
10
-202.5
20
0
30
0
11
-202.5
21
3.9999999999999858
31
0
0
LINE
5
189
100
AcDbEntity
8
0
100
AcDbLine
10
-202.5
20
3.9999999999999858
30
0
11
-195
21
3.9999999999999858
31
0
0
LINE
5
190
100
AcDbEntity
8
0
100
AcDbLine
10
-195
20
3.9999999999999858
30
0
11
-195
21
0
31
0
0
LINE
5
191
100
AcDbEntity
8
0
100
AcDbLine
10
-187.5
20
0
30
0
11
-195
21
0
31
0
0
LINE
5
192
100
AcDbEntity
8
0
100
AcDbLine
10
-187.5
20
0
30
0
11
-187.5
21
3.9999999999999858
31
0
0
LINE
5
193
100
AcDbEntity
8
0
100
AcDbLine
10
-187.5
20
3.9999999999999858
30
0
11
-180
21
3.9999999999999858
31
0
0
LINE
5
194
100
AcDbEntity
8
0
100
AcDbLine
10
-180
20
3.9999999999999858
30
0
11
-180
21
0
31
0
0
LINE
5
195
100
AcDbEntity
8
0
100
AcDbLine
10
-165
20
3.9999999999999858
30
0
11
-165
21
0
31
0
0
LINE
5
196
100
AcDbEntity
8
0
100
AcDbLine
10
-172.5
20
3.9999999999999858
30
0
11
-165
21
3.9999999999999858
31
0
0
LINE
5
197
100
AcDbEntity
8
0
100
AcDbLine
10
-172.5
20
0
30
0
11
-172.5
21
3.9999999999999858
31
0
0
LINE
5
198
100
AcDbEntity
8
0
100
AcDbLine
10
-172.5
20
0
30
0
11
-180
21
0
31
0
0
LINE
5
199
100
AcDbEntity
8
0
100
AcDbLine
10
-157.5
20
0
30
0
11
-165
21
0
31
0
0
LINE
5
200
100
AcDbEntity
8
0
100
AcDbLine
10
-157.5
20
0
30
0
11
-157.5
21
3.9999999999999858
31
0
0
LINE
5
201
100
AcDbEntity
8
0
100
AcDbLine
10
-157.5
20
3.9999999999999858
30
0
11
-150
21
3.9999999999999858
31
0
0
LINE
5
202
100
AcDbEntity
8
0
100
AcDbLine
10
-150
20
3.9999999999999858
30
0
11
-150
21
0
31
0
0
LINE
5
203
100
AcDbEntity
8
0
100
AcDbLine
10
-150
20
75
30
0
11
-154.09999999999999
21
75
31
0
0
LINE
5
204
100
AcDbEntity
8
0
100
AcDbLine
10
-154.09999999999999
20
75
30
0
11
-154.09999999999999
21
67.5
31
0
0
LINE
5
205
100
AcDbEntity
8
0
100
AcDbLine
10
-154.09999999999999
20
67.5
30
0
11
-150
21
67.5
31
0
0
LINE
5
206
100
AcDbEntity
8
0
100
AcDbLine
10
-150
20
67.5
30
0
11
-150
21
60
31
0
0
LINE
5
207
100
AcDbEntity
8
0
100
AcDbLine
10
-150
20
60
30
0
11
-154.09999999999999
21
60
31
0
0
LINE
5
208
100
AcDbEntity
8
0
100
AcDbLine
10
-154.09999999999999
20
60
30
0
11
-154.09999999999999
21
52.5
31
0
0
LINE
5
209
100
AcDbEntity
8
0
100
AcDbLine
10
-154.09999999999999
20
52.5
30
0
11
-150
21
52.5
31
0
0
LINE
5
210
100
AcDbEntity
8
0
100
AcDbLine
10
-150
20
52.5
30
0
11
-150
21
45
31
0
0
LINE
5
211
100
AcDbEntity
8
0
100
AcDbLine
10
-150
20
45
30
0
11
-154.09999999999999
21
45
31
0
0
LINE
5
212
100
AcDbEntity
8
0
100
AcDbLine
10
-154.09999999999999
20
45
30
0
11
-154.09999999999999
21
37.5
31
0
0
LINE
5
213
100
AcDbEntity
8
0
100
AcDbLine
10
-154.09999999999999
20
37.5
30
0
11
-150
21
37.5
31
0
0
LINE
5
214
100
AcDbEntity
8
0
100
AcDbLine
10
-150
20
37.5
30
0
11
-150
21
30
31
0
0
LINE
5
215
100
AcDbEntity
8
0
100
AcDbLine
10
-150
20
30
30
0
11
-154.09999999999999
21
30
31
0
0
LINE
5
216
100
AcDbEntity
8
0
100
AcDbLine
10
-154.09999999999999
20
30
30
0
11
-154.09999999999999
21
22.5
31
0
0
LINE
5
217
100
AcDbEntity
8
0
100
AcDbLine
10
-154.09999999999999
20
22.5
30
0
11
-150
21
22.5
31
0
0
LINE
5
218
100
AcDbEntity
8
0
100
AcDbLine
10
-150
20
22.5
30
0
11
-150
21
15
31
0
0
LINE
5
219
100
AcDbEntity
8
0
100
AcDbLine
10
-150
20
15
30
0
11
-154.09999999999999
21
15
31
0
0
LINE
5
220
100
AcDbEntity
8
0
100
AcDbLine
10
-154.09999999999999
20
15
30
0
11
-154.09999999999999
21
7.5
31
0
0
LINE
5
221
100
AcDbEntity
8
0
100
AcDbLine
10
-154.09999999999999
20
7.5
30
0
11
-150
21
7.5
31
0
0
LINE
5
222
100
AcDbEntity
8
0
100
AcDbLine
10
-150
20
7.5
30
0
11
-150
21
0
31
0
0
LINE
5
223
100
AcDbEntity
8
0
100
AcDbLine
10
-75
20
0
30
0
11
-75
21
75
31
0
0
LINE
5
224
100
AcDbEntity
8
0
100
AcDbLine
10
0
20
75
30
0
11
4.1000000000000014
21
75
31
0
0
LINE
5
225
100
AcDbEntity
8
0
100
AcDbLine
10
4.1000000000000014
20
75
30
0
11
4.1000000000000014
21
67.5
31
0
0
LINE
5
226
100
AcDbEntity
8
0
100
AcDbLine
10
4.1000000000000014
20
67.5
30
0
11
0
21
67.5
31
0
0
LINE
5
227
100
AcDbEntity
8
0
100
AcDbLine
10
0
20
67.5
30
0
11
0
21
60
31
0
0
LINE
5
228
100
AcDbEntity
8
0
100
AcDbLine
10
0
20
60
30
0
11
4.1000000000000014
21
60
31
0
0
LINE
5
229
100
AcDbEntity
8
0
100
AcDbLine
10
4.1000000000000014
20
60
30
0
11
4.1000000000000014
21
52.5
31
0
0
LINE
5
230
100
AcDbEntity
8
0
100
AcDbLine
10
4.1000000000000014
20
52.5
30
0
11
0
21
52.5
31
0
0
LINE
5
231
100
AcDbEntity
8
0
100
AcDbLine
10
0
20
52.5
30
0
11
0
21
45
31
0
0
LINE
5
232
100
AcDbEntity
8
0
100
AcDbLine
10
0
20
45
30
0
11
4.1000000000000014
21
45
31
0
0
LINE
5
233
100
AcDbEntity
8
0
100
AcDbLine
10
4.1000000000000014
20
45
30
0
11
4.1000000000000014
21
37.5
31
0
0
LINE
5
234
100
AcDbEntity
8
0
100
AcDbLine
10
4.1000000000000014
20
37.5
30
0
11
0
21
37.5
31
0
0
LINE
5
235
100
AcDbEntity
8
0
100
AcDbLine
10
0
20
37.5
30
0
11
0
21
30
31
0
0
LINE
5
236
100
AcDbEntity
8
0
100
AcDbLine
10
0
20
30
30
0
11
4.1000000000000014
21
30
31
0
0
LINE
5
237
100
AcDbEntity
8
0
100
AcDbLine
10
4.1000000000000014
20
30
30
0
11
4.1000000000000014
21
22.5
31
0
0
LINE
5
238
100
AcDbEntity
8
0
100
AcDbLine
10
4.1000000000000014
20
22.5
30
0
11
0
21
22.5
31
0
0
LINE
5
239
100
AcDbEntity
8
0
100
AcDbLine
10
0
20
22.5
30
0
11
0
21
15
31
0
0
LINE
5
240
100
AcDbEntity
8
0
100
AcDbLine
10
4.1000000000000014
20
15
30
0
11
4.1000000000000014
21
7.5
31
0
0
LINE
5
241
100
AcDbEntity
8
0
100
AcDbLine
10
4.1000000000000014
20
7.5
30
0
11
0
21
7.5
31
0
0
LINE
5
242
100
AcDbEntity
8
0
100
AcDbLine
10
0
20
7.5
30
0
11
0
21
0
31
0
0
LINE
5
243
100
AcDbEntity
8
0
100
AcDbLine
10
0
20
15
30
0
11
4.1000000000000014
21
15
31
0
0
LINE
5
244
100
AcDbEntity
8
0
100
AcDbLine
10
-150
20
-150
30
0
11
0
21
-150
31
0
6
DASHED
0
LINE
5
245
100
AcDbEntity
8
0
100
AcDbLine
10
-150
20
-375
30
0
11
-154.09999999999999
21
-375
31
0
0
LINE
5
246
100
AcDbEntity
8
0
100
AcDbLine
10
-154.09999999999999
20
-375
30
0
11
-154.09999999999999
21
-367.5
31
0
0
LINE
5
247
100
AcDbEntity
8
0
100
AcDbLine
10
-154.09999999999999
20
-367.5
30
0
11
-150
21
-367.5
31
0
0
LINE
5
248
100
AcDbEntity
8
0
100
AcDbLine
10
-150
20
-367.5
30
0
11
-150
21
-360
31
0
0
LINE
5
249
100
AcDbEntity
8
0
100
AcDbLine
10
-150
20
-360
30
0
11
-154.09999999999999
21
-360
31
0
0
LINE
5
250
100
AcDbEntity
8
0
100
AcDbLine
10
-154.09999999999999
20
-360
30
0
11
-154.09999999999999
21
-352.5
31
0
0
LINE
5
251
100
AcDbEntity
8
0
100
AcDbLine
10
-154.09999999999999
20
-352.5
30
0
11
-150
21
-352.5
31
0
0
LINE
5
252
100
AcDbEntity
8
0
100
AcDbLine
10
-150
20
-352.5
30
0
11
-150
21
-345
31
0
0
LINE
5
253
100
AcDbEntity
8
0
100
AcDbLine
10
-150
20
-345
30
0
11
-154.09999999999999
21
-345
31
0
0
LINE
5
254
100
AcDbEntity
8
0
100
AcDbLine
10
-154.09999999999999
20
-345
30
0
11
-154.09999999999999
21
-337.5
31
0
0
LINE
5
255
100
AcDbEntity
8
0
100
AcDbLine
10
-154.09999999999999
20
-337.5
30
0
11
-150
21
-337.5
31
0
0
LINE
5
256
100
AcDbEntity
8
0
100
AcDbLine
10
-150
20
-337.5
30
0
11
-150
21
-330
31
0
0
LINE
5
257
100
AcDbEntity
8
0
100
AcDbLine
10
-150
20
-330
30
0
11
-154.09999999999999
21
-330
31
0
0
LINE
5
258
100
AcDbEntity
8
0
100
AcDbLine
10
-154.09999999999999
20
-330
30
0
11
-154.09999999999999
21
-322.5
31
0
0
LINE
5
259
100
AcDbEntity
8
0
100
AcDbLine
10
-154.09999999999999
20
-322.5
30
0
11
-150
21
-322.5
31
0
0
LINE
5
260
100
AcDbEntity
8
0
100
AcDbLine
10
-150
20
-322.5
30
0
11
-150
21
-315
31
0
0
LINE
5
261
100
AcDbEntity
8
0
100
AcDbLine
10
-150
20
-315
30
0
11
-154.09999999999999
21
-315
31
0
0
LINE
5
262
100
AcDbEntity
8
0
100
AcDbLine
10
-154.09999999999999
20
-315
30
0
11
-154.09999999999999
21
-307.5
31
0
0
LINE
5
263
100
AcDbEntity
8
0
100
AcDbLine
10
-154.09999999999999
20
-307.5
30
0
11
-150
21
-307.5
31
0
0
LINE
5
264
100
AcDbEntity
8
0
100
AcDbLine
10
-150
20
-307.5
30
0
11
-150
21
-300
31
0
0
LINE
5
265
100
AcDbEntity
8
0
100
AcDbLine
10
0
20
-375
30
0
11
4.1000000000000014
21
-375
31
0
0
LINE
5
266
100
AcDbEntity
8
0
100
AcDbLine
10
4.1000000000000014
20
-375
30
0
11
4.1000000000000014
21
-367.5
31
0
0
LINE
5
267
100
AcDbEntity
8
0
100
AcDbLine
10
4.1000000000000014
20
-367.5
30
0
11
0
21
-367.5
31
0
0
LINE
5
268
100
AcDbEntity
8
0
100
AcDbLine
10
0
20
-367.5
30
0
11
0
21
-360
31
0
0
LINE
5
269
100
AcDbEntity
8
0
100
AcDbLine
10
0
20
-360
30
0
11
4.1000000000000014
21
-360
31
0
0
LINE
5
270
100
AcDbEntity
8
0
100
AcDbLine
10
4.1000000000000014
20
-360
30
0
11
4.1000000000000014
21
-352.5
31
0
0
LINE
5
271
100
AcDbEntity
8
0
100
AcDbLine
10
4.1000000000000014
20
-352.5
30
0
11
0
21
-352.5
31
0
0
LINE
5
272
100
AcDbEntity
8
0
100
AcDbLine
10
0
20
-352.5
30
0
11
0
21
-345
31
0
0
LINE
5
273
100
AcDbEntity
8
0
100
AcDbLine
10
0
20
-345
30
0
11
4.1000000000000014
21
-345
31
0
0
LINE
5
274
100
AcDbEntity
8
0
100
AcDbLine
10
4.1000000000000014
20
-345
30
0
11
4.1000000000000014
21
-337.5
31
0
0
LINE
5
275
100
AcDbEntity
8
0
100
AcDbLine
10
4.1000000000000014
20
-337.5
30
0
11
0
21
-337.5
31
0
0
LINE
5
276
100
AcDbEntity
8
0
100
AcDbLine
10
0
20
-337.5
30
0
11
0
21
-330
31
0
0
LINE
5
277
100
AcDbEntity
8
0
100
AcDbLine
10
0
20
-330
30
0
11
4.1000000000000014
21
-330
31
0
0
LINE
5
278
100
AcDbEntity
8
0
100
AcDbLine
10
4.1000000000000014
20
-330
30
0
11
4.1000000000000014
21
-322.5
31
0
0
LINE
5
279
100
AcDbEntity
8
0
100
AcDbLine
10
4.1000000000000014
20
-322.5
30
0
11
0
21
-322.5
31
0
0
LINE
5
280
100
AcDbEntity
8
0
100
AcDbLine
10
0
20
-322.5
30
0
11
0
21
-315
31
0
0
LINE
5
281
100
AcDbEntity
8
0
100
AcDbLine
10
0
20
-315
30
0
11
4.1000000000000014
21
-315
31
0
0
LINE
5
282
100
AcDbEntity
8
0
100
AcDbLine
10
4.1000000000000014
20
-315
30
0
11
4.1000000000000014
21
-307.5
31
0
0
LINE
5
283
100
AcDbEntity
8
0
100
AcDbLine
10
4.1000000000000014
20
-307.5
30
0
11
0
21
-307.5
31
0
0
LINE
5
284
100
AcDbEntity
8
0
100
AcDbLine
10
0
20
-307.5
30
0
11
0
21
-300
31
0
0
LINE
5
285
100
AcDbEntity
8
0
100
AcDbLine
10
-190
20
-280
30
0
11
-190
21
-180
31
0
6
DASHED
0
LINE
5
286
100
AcDbEntity
8
0
100
AcDbLine
10
-190
20
-180
30
0
11
-210
21
-180
31
0
6
DASHED
0
LINE
5
287
100
AcDbEntity
8
0
100
AcDbLine
10
-210
20
-180
30
0
11
-210
21
-280
31
0
6
DASHED
0
LINE
5
288
100
AcDbEntity
8
0
100
AcDbLine
10
-210
20
-280
30
0
11
-190
21
-280
31
0
6
DASHED
0
LINE
5
289
100
AcDbEntity
8
0
100
AcDbLine
10
-180
20
-280
30
0
11
-180
21
-200
31
0
6
DASHED
0
LINE
5
290
100
AcDbEntity
8
0
100
AcDbLine
10
-180
20
-200
30
0
11
-190
21
-200
31
0
6
DASHED
0
LINE
5
291
100
AcDbEntity
8
0
100
AcDbLine
10
-190
20
-200
30
0
11
-190
21
-280
31
0
6
DASHED
0
LINE
5
292
100
AcDbEntity
8
0
100
AcDbLine
10
-190
20
-280
30
0
11
-180
21
-280
31
0
6
DASHED
0
LINE
5
293
100
AcDbEntity
8
0
100
AcDbLine
10
-202.26905417078564
20
-92.381832933452017
30
0
11
-202.26905417078564
21
-76.131832933452017
31
0
0
LINE
5
294
100
AcDbEntity
8
0
100
AcDbLine
10
-202.26905417078564
20
-76.131832933452017
30
0
11
-195.76905417078561
21
-72.881832933452017
31
0
0
LINE
5
295
100
AcDbEntity
8
0
100
AcDbLine
10
-202.26905417078564
20
-92.381832933452017
30
0
11
-197.38733368856217
21
-97.313546909194727
31
0
0
LINE
5
296
100
AcDbEntity
8
0
100
AcDbLine
10
-198.96491507785532
20
-95.719809575445325
30
0
11
-195.76905417078575
21
-92.556345569804279
31
0
0
LINE
5
297
100
AcDbEntity
8
0
100
AcDbLine
10
-195.76905417078575
20
-92.556345569804279
30
0
11
-195.76905417078561
21
-72.881832933452017
31
0
0
LINE
5
298
100
AcDbEntity
8
0
100
AcDbLine
10
-202.26905417078564
20
-76.131832933452017
30
0
11
-202.26905417078564
21
-72.881832933452017
31
0
0
LINE
5
299
100
AcDbEntity
8
0
100
AcDbLine
10
-205.51905417078561
20
-72.881832933452017
30
0
11
-205.51905417078561
21
-89.131832933452017
31
0
0
SPLINE
5
300
100
AcDbEntity
8
0
100
AcDbSpline
70
12
71
2
41
1
41
3
41
1
72
6
73
3
74
0
42
0.000000001
43
0.0000000001
44
0.0000000001
40
0
40
0
40
0
40
0.67554276153392523
40
0.67554276153392523
40
0.67554276153392523
10
-203.72626058580349
20
-69.802604175167247
30
0
10
-201.57102544074147
20
-68.027704643939686
30
0
10
-197.514112226507
20
-69.675825637222403
30
0
0
SPLINE
5
301
100
AcDbEntity
8
0
100
AcDbSpline
70
4
71
5
72
21
73
15
74
0
42
0.000000001
43
0.0000000001
44
0.0000000001
40
0
40
0
40
0
40
0
40
0
40
0
40
0.10000000000000001
40
0.20000000000000001
40
0.30000000000000004
40
0.40000000000000002
40
0.5
40
0.59999999999999998
40
0.69999999999999996
40
0.79999999999999993
40
0.89999999999999991
40
1
40
1
40
1
40
1
40
1
40
1
41
1
41
1
41
1
41
1
41
1
41
1
41
1
41
1
41
1
41
1
41
1
41
1
41
1
41
1
41
1
10
-206.65648067504111
20
-102.29321909441596
30
0
10
-206.93125704287058
20
-101.8808195303412
30
0
10
-207.48102989271504
20
-100.93015937819688
30
0
10
-208.30629337409621
20
-99.126800830618507
30
0
10
-209.34926655503122
20
-96.222654530987626
30
0
10
-210.28437454330879
20
-92.893308040785229
30
0
10
-210.62369651035186
20
-90.713102097944173
30
0
10
-210.34429295291039
20
-89.517205501337287
30
0
10
-209.86691638433001
20
-87.077401476225305
30
0
10
-209.38684394369335
20
-83.152754846245998
30
0
10
-209.0200701242872
20
-78.226702096410293
30
0
10
-208.84521253192844
20
-74.279175325111979
30
0
10
-208.78187683190782
20
-71.736384030786752
30
0
10
-208.7685124987178
20
-70.291642230627943
30
0
10
-208.76905417078561
20
-69.631832933452017
30
0
0
SPLINE
5
302
100
AcDbEntity
8
0
100
AcDbSpline
70
4
71
5
72
21
73
15
74
0
42
0.000000001
43
0.0000000001
44
0.0000000001
40
0
40
0
40
0
40
0
40
0
40
0
40
0.10000000000000001
40
0.20000000000000001
40
0.30000000000000004
40
0.40000000000000002
40
0.5
40
0.59999999999999998
40
0.69999999999999996
40
0.79999999999999993
40
0.89999999999999991
40
1
40
1
40
1
40
1
40
1
40
1
41
1
41
1
41
1
41
1
41
1
41
1
41
1
41
1
41
1
41
1
41
1
41
1
41
1
41
1
41
1
10
-206.65648067504111
20
-102.29321909441596
30
0
10
-206.88637815277735
20
-102.40160060154787
30
0
10
-207.44438665281123
20
-102.34200349555971
30
0
10
-208.57592230868028
20
-101.42367656184008
30
0
10
-210.48765279218128
20
-98.884584899857117
30
0
10
-212.66155331999838
20
-95.098866717097934
30
0
10
-213.80547591340675
20
-92.058084232324489
30
0
10
-213.6487023561381
20
-89.972496899803204
30
0
10
-213.08751341626925
20
-86.761632350429636
30
0
10
-212.49318885778294
20
-82.331306756742393
30
0
10
-212.08794492800905
20
-77.239165061442506
30
0
10
-211.95190155692612
20
-73.474361093748314
30
0
10
-211.9499717112277
20
-71.258669159637535
30
0
10
-211.98924956648386
20
-70.118064152838969
30
0
10
-212.01905417078561
20
-69.631832933452017
30
0
0
ARC
5
303
100
AcDbEntity
8
0
100
AcDbCircle
10
-210.39405417078564
20
-69.532225010185883
30
0
40
1.6280499803069428
210
-0
220
0
230
1
100
AcDbArc
50
-3.507681117481142
51
183.50768111748116
0
LINE
5
304
100
AcDbEntity
8
0
100
AcDbLine
10
-205.51905417078561
20
-72.881832933452017
30
0
11
-205.51905417078561
21
-89.131832933452017
31
0
0
LINE
5
305
100
AcDbEntity
8
0
100
AcDbLine
10
-198.96491507785532
20
-95.719809575445325
30
0
11
-195.76905417078575
21
-92.556345569804279
31
0
0
SPLINE
5
306
100
AcDbEntity
8
0
100
AcDbSpline
70
4
71
5
72
21
73
15
74
0
42
0.000000001
43
0.0000000001
44
0.0000000001
40
0
40
0
40
0
40
0
40
0
40
0
40
0.10000000000000001
40
0.20000000000000001
40
0.30000000000000004
40
0.40000000000000002
40
0.5
40
0.59999999999999998
40
0.69999999999999996
40
0.79999999999999993
40
0.89999999999999991
40
1
40
1
40
1
40
1
40
1
40
1
41
1
41
1
41
1
41
1
41
1
41
1
41
1
41
1
41
1
41
1
41
1
41
1
41
1
41
1
41
1
10
-206.65648067504111
20
-102.29321909441596
30
0
10
-206.88637815277735
20
-102.40160060154787
30
0
10
-207.44438665281123
20
-102.34200349555971
30
0
10
-208.57592230868028
20
-101.42367656184008
30
0
10
-210.48765279218128
20
-98.884584899857117
30
0
10
-212.66155331999838
20
-95.098866717097934
30
0
10
-213.80547591340675
20
-92.058084232324489
30
0
10
-213.6487023561381
20
-89.972496899803204
30
0
10
-213.08751341626925
20
-86.761632350429636
30
0
10
-212.49318885778294
20
-82.331306756742393
30
0
10
-212.08794492800905
20
-77.239165061442506
30
0
10
-211.95190155692612
20
-73.474361093748314
30
0
10
-211.9499717112277
20
-71.258669159637535
30
0
10
-211.98924956648386
20
-70.118064152838969
30
0
10
-212.01905417078561
20
-69.631832933452017
30
0
0
SPLINE
5
307
100
AcDbEntity
8
0
100
AcDbSpline
70
4
71
5
72
21
73
15
74
0
42
0.000000001
43
0.0000000001
44
0.0000000001
40
0
40
0
40
0
40
0
40
0
40
0
40
0.10000000000000001
40
0.20000000000000001
40
0.30000000000000004
40
0.40000000000000002
40
0.5
40
0.59999999999999998
40
0.69999999999999996
40
0.79999999999999993
40
0.89999999999999991
40
1
40
1
40
1
40
1
40
1
40
1
41
1
41
1
41
1
41
1
41
1
41
1
41
1
41
1
41
1
41
1
41
1
41
1
41
1
41
1
41
1
10
-206.65648067504111
20
-102.29321909441596
30
0
10
-206.93125704287058
20
-101.8808195303412
30
0
10
-207.48102989271504
20
-100.93015937819688
30
0
10
-208.30629337409621
20
-99.126800830618507
30
0
10
-209.34926655503122
20
-96.222654530987626
30
0
10
-210.28437454330879
20
-92.893308040785229
30
0
10
-210.62369651035186
20
-90.713102097944173
30
0
10
-210.34429295291039
20
-89.517205501337287
30
0
10
-209.86691638433001
20
-87.077401476225305
30
0
10
-209.38684394369335
20
-83.152754846245998
30
0
10
-209.0200701242872
20
-78.226702096410293
30
0
10
-208.84521253192844
20
-74.279175325111979
30
0
10
-208.78187683190782
20
-71.736384030786752
30
0
10
-208.7685124987178
20
-70.291642230627943
30
0
10
-208.76905417078561
20
-69.631832933452017
30
0
0
LINE
5
308
100
AcDbEntity
8
0
100
AcDbLine
10
-202.26905417078564
20
-92.381832933452017
30
0
11
-202.26905417078564
21
-76.131832933452017
31
0
0
SPLINE
5
309
100
AcDbEntity
8
0
100
AcDbSpline
70
12
71
2
41
1
41
3
41
1
72
6
73
3
74
0
42
0.000000001
43
0.0000000001
44
0.0000000001
40
0
40
0
40
0
40
0.67554276153392523
40
0.67554276153392523
40
0.67554276153392523
10
-203.72626058580349
20
-69.802604175167247
30
0
10
-201.57102544074147
20
-68.027704643939686
30
0
10
-197.514112226507
20
-69.675825637222403
30
0
0
LINE
5
310
100
AcDbEntity
8
0
100
AcDbLine
10
-202.26905417078564
20
-76.131832933452017
30
0
11
-202.26905417078564
21
-72.881832933452017
31
0
0
ARC
5
311
100
AcDbEntity
8
0
100
AcDbCircle
10
-210.39405417078564
20
-69.532225010185883
30
0
40
1.6280499803069428
210
-0
220
0
230
1
100
AcDbArc
50
-3.507681117481142
51
183.50768111748116
0
LINE
5
312
100
AcDbEntity
8
0
100
AcDbLine
10
-202.26905417078564
20
-92.381832933452017
30
0
11
-197.38733368856217
21
-97.313546909194727
31
0
0
LINE
5
313
100
AcDbEntity
8
0
100
AcDbLine
10
-202.26905417078564
20
-76.131832933452017
30
0
11
-195.76905417078561
21
-72.881832933452017
31
0
0
LINE
5
314
100
AcDbEntity
8
0
100
AcDbLine
10
-195.76905417078575
20
-92.556345569804279
30
0
11
-195.76905417078561
21
-72.881832933452017
31
0
0
ARC
5
315
100
AcDbEntity
8
0
100
AcDbCircle
10
-198.94462780518728
20
-82.819481279412116
30
0
40
5.0667988486636588
210
0
220
0
230
1
100
AcDbArc
50
228.9953964599207
51
308.81013098606155
0
ARC
5
316
100
AcDbEntity
8
0
100
AcDbCircle
10
-198.84157706898517
20
-83.340154802981345
30
0
40
5.2316724951266247
210
0
220
-0
230
1
100
AcDbArc
50
54.034877831338697
51
130.93025451014461
0
LINE
5
317
100
AcDbEntity
8
0
100
AcDbLine
10
-210.06905791917268
20
-103.43183455097306
30
0
11
-213.31905796760145
21
-98.881834483172781
31
0
0
LINE
5
318
100
AcDbEntity
8
0
100
AcDbLine
10
-198.96491507785532
20
-24.04385629145871
30
0
11
-195.76905417078575
21
-27.207320297099756
31
0
0
LINE
5
319
100
AcDbEntity
8
0
100
AcDbLine
10
-202.26905417078564
20
-43.631832933452017
30
0
11
-202.26905417078564
21
-46.881832933452017
31
0
0
ARC
5
320
100
AcDbEntity
8
0
100
AcDbCircle
10
-210.39405417078564
20
-50.231440856718159
30
0
40
1.628049980306908
210
0
220
0
230
1
100
AcDbArc
50
-183.50768111748147
51
3.5076811174813716
0
SPLINE
5
321
100
AcDbEntity
8
0
100
AcDbSpline
70
12
71
2
41
1
41
3
41
1
72
6
73
3
74
0
42
0.000000001
43
0.0000000001
44
0.0000000001
40
0
40
0
40
0
40
0.67554276153392556
40
0.67554276153392556
40
0.67554276153392556
10
-203.72626058580349
20
-49.961061691736795
30
0
10
-201.57102544074147
20
-51.73596122296437
30
0
10
-197.514112226507
20
-50.087840229681632
30
0
0
LINE
5
322
100
AcDbEntity
8
0
100
AcDbLine
10
-198.96491507785532
20
-24.04385629145871
30
0
11
-195.76905417078575
21
-27.207320297099756
31
0
0
LINE
5
323
100
AcDbEntity
8
0
100
AcDbLine
10
-202.26905417078564
20
-43.631832933452017
30
0
11
-202.26905417078564
21
-46.881832933452017
31
0
0
LINE
5
324
100
AcDbEntity
8
0
100
AcDbLine
10
-210.06905791917268
20
-16.33183131593097
30
0
11
-213.31905796760145
21
-20.881831383731253
31
0
0
LINE
5
325
100
AcDbEntity
8
0
100
AcDbLine
10
-205.51905417078561
20
-46.881832933452017
30
0
11
-205.51905417078561
21
-30.631832933452017
31
0
0
SPLINE
5
326
100
AcDbEntity
8
0
100
AcDbSpline
70
4
71
5
72
21
73
15
74
0
42
0.000000001
43
0.0000000001
44
0.0000000001
40
0
40
0
40
0
40
0
40
0
40
0
40
0.10000000000000001
40
0.20000000000000001
40
0.30000000000000004
40
0.40000000000000002
40
0.5
40
0.59999999999999998
40
0.69999999999999996
40
0.79999999999999993
40
0.89999999999999991
40
1
40
1
40
1
40
1
40
1
40
1
41
1
41
1
41
1
41
1
41
1
41
1
41
1
41
1
41
1
41
1
41
1
41
1
41
1
41
1
41
1
10
-206.65648067504111
20
-17.470446772488067
30
0
10
-206.88637815277735
20
-17.362065265356151
30
0
10
-207.44438665281123
20
-17.421662371344393
30
0
10
-208.57592230868028
20
-18.339989305064876
30
0
10
-210.48765279218128
20
-20.879080967048395
30
0
10
-212.66155331999838
20
-24.664799149806704
30
0
10
-213.80547591340675
20
-27.705581634579399
30
0
10
-213.6487023561381
20
-29.79116896710088
30
0
10
-213.08751341626925
20
-33.002033516474924
30
0
10
-212.49318885778294
20
-37.432359110162466
30
0
10
-212.08794492800905
20
-42.524500805462004
30
0
10
-211.95190155692612
20
-46.289304773155919
30
0
10
-211.9499717112277
20
-48.504996707266571
30
0
10
-211.98924956648386
20
-49.645601714065073
30
0
10
-212.01905417078561
20
-50.131832933452017
30
0
0
SPLINE
5
327
100
AcDbEntity
8
0
100
AcDbSpline
70
4
71
5
72
21
73
15
74
0
42
0.000000001
43
0.0000000001
44
0.0000000001
40
0
40
0
40
0
40
0
40
0
40
0
40
0.10000000000000001
40
0.20000000000000001
40
0.30000000000000004
40
0.40000000000000002
40
0.5
40
0.59999999999999998
40
0.69999999999999996
40
0.79999999999999993
40
0.89999999999999991
40
1
40
1
40
1
40
1
40
1
40
1
41
1
41
1
41
1
41
1
41
1
41
1
41
1
41
1
41
1
41
1
41
1
41
1
41
1
41
1
41
1
10
-206.65648067504111
20
-17.470446772488067
30
0
10
-206.93125704287058
20
-17.882846336562842
30
0
10
-207.48102989271507
20
-18.833506488706682
30
0
10
-208.30629337409624
20
-20.636865036283094
30
0
10
-209.34926655503142
20
-23.541011335912859
30
0
10
-210.28437454330884
20
-26.870357826117566
30
0
10
-210.62369651035195
20
-29.050563768960266
30
0
10
-210.34429295291062
20
-30.246460365566584
30
0
10
-209.8669163843299
20
-32.686264390678154
30
0
10
-209.38684394369304
20
-36.610911020657781
30
0
10
-209.02007012428697
20
-41.536963770493941
30
0
10
-208.84521253192833
20
-45.48449054179234
30
0
10
-208.78187683190782
20
-48.027281836117332
30
0
10
-208.7685124987178
20
-49.472023636276091
30
0
10
-208.76905417078561
20
-50.131832933452017
30
0
0
ARC
5
328
100
AcDbEntity
8
0
100
AcDbCircle
10
-198.94462780518728
20
-36.944184587491932
30
0
40
5.0667988486636419
210
0
220
-0
230
1
100
AcDbArc
50
51.189869013938505
51
131.00460354007919
0
LINE
5
329
100
AcDbEntity
8
0
100
AcDbLine
10
-202.26905417078564
20
-27.381832933452017
30
0
11
-202.26905417078564
21
-43.631832933452017
31
0
0
LINE
5
330
100
AcDbEntity
8
0
100
AcDbLine
10
-202.26905417078564
20
-27.381832933452017
30
0
11
-197.38733368856217
21
-22.450118957709321
31
0
0
LINE
5
331
100
AcDbEntity
8
0
100
AcDbLine
10
-205.51905417078561
20
-46.881832933452017
30
0
11
-205.51905417078561
21
-30.631832933452017
31
0
0
ARC
5
332
100
AcDbEntity
8
0
100
AcDbCircle
10
-198.84157706898517
20
-36.423511063922696
30
0
40
5.2316724951266576
210
0
220
0
230
1
100
AcDbArc
50
229.06974548985531
51
305.96512216866131
0
SPLINE
5
333
100
AcDbEntity
8
0
100
AcDbSpline
70
4
71
5
72
21
73
15
74
0
42
0.000000001
43
0.0000000001
44
0.0000000001
40
0
40
0
40
0
40
0
40
0
40
0
40
0.10000000000000001
40
0.20000000000000001
40
0.30000000000000004
40
0.40000000000000002
40
0.5
40
0.59999999999999998
40
0.69999999999999996
40
0.79999999999999993
40
0.89999999999999991
40
1
40
1
40
1
40
1
40
1
40
1
41
1
41
1
41
1
41
1
41
1
41
1
41
1
41
1
41
1
41
1
41
1
41
1
41
1
41
1
41
1
10
-206.65648067504111
20
-17.470446772488067
30
0
10
-206.93125704287058
20
-17.882846336562842
30
0
10
-207.48102989271507
20
-18.833506488706682
30
0
10
-208.30629337409624
20
-20.636865036283094
30
0
10
-209.34926655503142
20
-23.541011335912859
30
0
10
-210.28437454330884
20
-26.870357826117566
30
0
10
-210.62369651035195
20
-29.050563768960266
30
0
10
-210.34429295291062
20
-30.246460365566584
30
0
10
-209.8669163843299
20
-32.686264390678154
30
0
10
-209.38684394369304
20
-36.610911020657781
30
0
10
-209.02007012428697
20
-41.536963770493941
30
0
10
-208.84521253192833
20
-45.48449054179234
30
0
10
-208.78187683190782
20
-48.027281836117332
30
0
10
-208.7685124987178
20
-49.472023636276091
30
0
10
-208.76905417078561
20
-50.131832933452017
30
0
0
ARC
5
334
100
AcDbEntity
8
0
100
AcDbCircle
10
-210.39405417078564
20
-50.231440856718159
30
0
40
1.628049980306908
210
0
220
0
230
1
100
AcDbArc
50
-183.50768111748147
51
3.5076811174813716
0
SPLINE
5
335
100
AcDbEntity
8
0
100
AcDbSpline
70
12
71
2
41
1
41
3
41
1
72
6
73
3
74
0
42
0.000000001
43
0.0000000001
44
0.0000000001
40
0
40
0
40
0
40
0.67554276153392556
40
0.67554276153392556
40
0.67554276153392556
10
-203.72626058580349
20
-49.961061691736795
30
0
10
-201.57102544074147
20
-51.73596122296437
30
0
10
-197.514112226507
20
-50.087840229681632
30
0
0
LINE
5
336
100
AcDbEntity
8
0
100
AcDbLine
10
-195.76905417078575
20
-27.207320297099756
30
0
11
-195.76905417078561
21
-46.881832933452017
31
0
0
SPLINE
5
337
100
AcDbEntity
8
0
100
AcDbSpline
70
4
71
5
72
21
73
15
74
0
42
0.000000001
43
0.0000000001
44
0.0000000001
40
0
40
0
40
0
40
0
40
0
40
0
40
0.10000000000000001
40
0.20000000000000001
40
0.30000000000000004
40
0.40000000000000002
40
0.5
40
0.59999999999999998
40
0.69999999999999996
40
0.79999999999999993
40
0.89999999999999991
40
1
40
1
40
1
40
1
40
1
40
1
41
1
41
1
41
1
41
1
41
1
41
1
41
1
41
1
41
1
41
1
41
1
41
1
41
1
41
1
41
1
10
-206.65648067504111
20
-17.470446772488067
30
0
10
-206.88637815277735
20
-17.362065265356151
30
0
10
-207.44438665281123
20
-17.421662371344393
30
0
10
-208.57592230868028
20
-18.339989305064876
30
0
10
-210.48765279218128
20
-20.879080967048395
30
0
10
-212.66155331999838
20
-24.664799149806704
30
0
10
-213.80547591340675
20
-27.705581634579399
30
0
10
-213.6487023561381
20
-29.79116896710088
30
0
10
-213.08751341626925
20
-33.002033516474924
30
0
10
-212.49318885778294
20
-37.432359110162466
30
0
10
-212.08794492800905
20
-42.524500805462004
30
0
10
-211.95190155692612
20
-46.289304773155919
30
0
10
-211.9499717112277
20
-48.504996707266571
30
0
10
-211.98924956648386
20
-49.645601714065073
30
0
10
-212.01905417078561
20
-50.131832933452017
30
0
0
LINE
5
338
100
AcDbEntity
8
0
100
AcDbLine
10
-202.26905417078564
20
-43.631832933452017
30
0
11
-195.76905417078561
21
-46.881832933452017
31
0
0
LINE
5
339
100
AcDbEntity
8
0
100
AcDbLine
10
-202.26905417078564
20
-43.631832933452017
30
0
11
-195.76905417078561
21
-46.881832933452017
31
0
0
LINE
5
340
100
AcDbEntity
8
0
100
AcDbLine
10
-202.26905417078564
20
-27.381832933452017
30
0
11
-197.38733368856217
21
-22.450118957709321
31
0
0
LINE
5
341
100
AcDbEntity
8
0
100
AcDbLine
10
-195.76905417078575
20
-27.207320297099756
30
0
11
-195.76905417078561
21
-46.881832933452017
31
0
0
LINE
5
342
100
AcDbEntity
8
0
100
AcDbLine
10
-202.26905417078564
20
-27.381832933452017
30
0
11
-202.26905417078564
21
-43.631832933452017
31
0
0
SPLINE
5
343
100
AcDbEntity
8
0
100
AcDbSpline
70
12
71
2
41
1
41
3
41
1
72
6
73
3
74
0
42
0.000000001
43
0.0000000001
44
0.0000000001
40
0
40
0
40
0
40
5.0349277969193711
40
5.0349277969193711
40
5.0349277969193711
10
-164.26905417078561
20
-82.631832933452017
30
0
10
-164.00000244379044
20
-44.00000087916851
30
0
10
-174.00000259280205
20
-35.00000074505806
30
0
0
SPLINE
5
344
100
AcDbEntity
8
0
100
AcDbSpline
70
12
71
2
41
1
41
3
41
1
72
6
73
3
74
0
42
0.000000001
43
0.0000000001
44
0.0000000001
40
0
40
0
40
0
40
0.58798042851606458
40
0.58798042851606458
40
0.58798042851606458
10
-166.67229222606312
20
-83.172448264918714
30
0
10
-164.17333219833992
20
-83.076726292472998
30
0
10
-161.50330571399425
20
-80.779398953775697
30
0
0
SPLINE
5
345
100
AcDbEntity
8
0
100
AcDbSpline
70
12
71
2
41
1
41
3
41
1
72
6
73
3
74
0
42
0.000000001
43
0.0000000001
44
0.0000000001
40
0
40
0
40
0
40
2.630476882906247
40
2.630476882906247
40
2.630476882906247
10
-161.00000238418579
20
-31.000000685453415
30
0
10
-177.26905417078564
20
-24.131832933452017
30
0
10
-184.46581695509735
20
-19.24673399236206
30
0
0
LINE
5
346
100
AcDbEntity
8
0
100
AcDbLine
10
-155
20
-280
30
0
11
-155
21
-200
31
0
6
DASHED
0
LINE
5
347
100
AcDbEntity
8
0
100
AcDbLine
10
-155
20
-200
30
0
11
-165
21
-200
31
0
6
DASHED
0
LINE
5
348
100
AcDbEntity
8
0
100
AcDbLine
10
-165
20
-200
30
0
11
-165
21
-280
31
0
6
DASHED
0
LINE
5
349
100
AcDbEntity
8
0
100
AcDbLine
10
-165
20
-280
30
0
11
-155
21
-280
31
0
6
DASHED
0
LINE
5
350
100
AcDbEntity
8
0
100
AcDbLine
10
-202.97999978065491
20
-278.83000001311302
30
0
11
-209.99999940395355
21
-278.83000001311302
31
0
0
LINE
5
351
100
AcDbEntity
8
0
100
AcDbLine
10
-202.97999978065491
20
-276.48999989032745
30
0
11
-207.65999972820282
21
-276.48999989032745
31
0
0
LINE
5
352
100
AcDbEntity
8
0
100
AcDbLine
10
-207.65999972820282
20
-276.48999989032745
30
0
11
-207.65999972820282
21
-274.7350001335144
31
0
0
LINE
5
353
100
AcDbEntity
8
0
100
AcDbLine
10
-206.29499971866608
20
-273.37000012397766
30
0
11
-202.97999978065491
21
-273.37000012397766
31
0
0
ARC
5
354
100
AcDbEntity
8
0
100
AcDbCircle
10
-206.29499971866608
20
-274.7350001335144
30
0
40
1.3649998605251312
210
0
220
-0
230
1
100
AcDbArc
50
90
51
180.0000024148365
0
LINE
5
355
100
AcDbEntity
8
0
100
AcDbLine
10
-202.97999978065491
20
-270.25000035762787
30
0
11
-209.99999940395355
21
-270.25000035762787
31
0
0
LINE
5
356
100
AcDbEntity
8
0
100
AcDbLine
10
-207.65999972820282
20
-271.03000044822693
30
0
11
-207.65999972820282
21
-268.6900007724762
31
0
0
LINE
5
357
100
AcDbEntity
8
0
100
AcDbLine
10
-202.97999978065491
20
-266.35000109672546
30
0
11
-207.65999972820282
21
-266.35000109672546
31
0
0
LINE
5
358
100
AcDbEntity
8
0
100
AcDbLine
10
-207.65999972820282
20
-266.35000109672546
30
0
11
-207.65999972820282
21
-264.01000142097473
31
0
0
LINE
5
359
100
AcDbEntity
8
0
100
AcDbLine
10
-207.65999972820282
20
-264.01000142097473
30
0
11
-206.87999993562698
21
-264.01000142097473
31
0
0
LINE
5
360
100
AcDbEntity
8
0
100
AcDbLine
10
-206.09999984502792
20
-258.55000257492065
30
0
11
-204.53999996185303
21
-258.55000257492065
31
0
0
LINE
5
361
100
AcDbEntity
8
0
100
AcDbLine
10
-204.53999996185303
20
-261.670001745224
30
0
11
-206.09999984502792
21
-261.670001745224
31
0
0
ARC
5
362
100
AcDbEntity
8
0
100
AcDbCircle
10
-206.09999984502792
20
-260.11000156402588
30
0
40
1.5600000321865082
210
0
220
-0
230
1
100
AcDbArc
50
90
51
270.00000500895692
0
ARC
5
363
100
AcDbEntity
8
0
100
AcDbCircle
10
-204.53999996185303
20
-260.11000156402588
30
0
40
1.5600000321865082
210
0
220
-0
230
1
100
AcDbArc
50
-89.99999499104311
51
90.00001001791378
0
LINE
5
364
100
AcDbEntity
8
0
100
AcDbLine
10
-209.99999940395355
20
-253.09000253677368
30
0
11
-202.97999978065491
21
-253.09000253677368
31
0
0
LINE
5
365
100
AcDbEntity
8
0
100
AcDbLine
10
-202.97999978065491
20
-253.09000253677368
30
0
11
-202.97999978065491
21
-254.84500169754028
31
0
0
LINE
5
366
100
AcDbEntity
8
0
100
AcDbLine
10
-204.34499979019165
20
-256.21000051498413
30
0
11
-206.29499971866608
21
-256.21000051498413
31
0
0
LINE
5
367
100
AcDbEntity
8
0
100
AcDbLine
10
-207.65999972820282
20
-254.84500169754028
30
0
11
-207.65999972820282
21
-253.09000253677368
31
0
0
ARC
5
368
100
AcDbEntity
8
0
100
AcDbCircle
10
-204.34499979019165
20
-254.84500169754028
30
0
40
1.3649998605251312
210
0
220
-0
230
1
100
AcDbArc
50
-89.999994991042954
51
0
0
ARC
5
369
100
AcDbEntity
8
0
100
AcDbCircle
10
-206.29499971866608
20
-254.84500169754028
30
0
40
1.3649998605251312
210
0
220
-0
230
1
100
AcDbArc
50
180.0000024148365
51
270.00000500895703
0
LINE
5
370
100
AcDbEntity
8
0
100
AcDbLine
10
-207.65999972820282
20
-250.75000047683716
30
0
11
-204.34499979019165
21
-250.75000047683716
31
0
0
LINE
5
371
100
AcDbEntity
8
0
100
AcDbLine
10
-202.97999978065491
20
-249.38500165939331
30
0
11
-202.97999978065491
21
-247.63000249862671
31
0
0
LINE
5
372
100
AcDbEntity
8
0
100
AcDbLine
10
-202.97999978065491
20
-247.63000249862671
30
0
11
-207.65999972820282
21
-247.63000249862671
31
0
0
ARC
5
373
100
AcDbEntity
8
0
100
AcDbCircle
10
-204.34499979019165
20
-249.38500165939331
30
0
40
1.3649998605251312
210
0
220
-0
230
1
100
AcDbArc
50
-89.999994991042954
51
0
0
LINE
5
374
100
AcDbEntity
8
0
100
AcDbLine
10
-202.97999978065491
20
-242.95000076293945
30
0
11
-202.97999978065491
21
-243.92500162124634
31
0
0
LINE
5
375
100
AcDbEntity
8
0
100
AcDbLine
10
-204.34499979019165
20
-245.29000043869019
30
0
11
-206.29499971866608
21
-245.29000043869019
31
0
0
LINE
5
376
100
AcDbEntity
8
0
100
AcDbLine
10
-207.65999972820282
20
-243.92500162124634
30
0
11
-207.65999972820282
21
-242.95000076293945
31
0
0
ARC
5
377
100
AcDbEntity
8
0
100
AcDbCircle
10
-204.34499979019165
20
-243.92500162124634
30
0
40
1.3649998605251312
210
0
220
-0
230
1
100
AcDbArc
50
-89.999994991042954
51
0
0
ARC
5
378
100
AcDbEntity
8
0
100
AcDbCircle
10
-206.29499971866608
20
-243.92500162124634
30
0
40
1.3649998605251312
210
0
220
-0
230
1
100
AcDbArc
50
180.0000024148365
51
270.00000500895703
0
LINE
5
379
100
AcDbEntity
8
0
100
AcDbLine
10
-202.97999978065491
20
-239.830002784729
30
0
11
-209.99999940395355
21
-239.830002784729
31
0
0
LINE
5
380
100
AcDbEntity
8
0
100
AcDbLine
10
-207.65999972820282
20
-240.61000108718872
30
0
11
-207.65999972820282
21
-238.27000141143799
31
0
0
LINE
5
381
100
AcDbEntity
8
0
100
AcDbLine
10
-202.97999978065491
20
-235.92999935150146
30
0
11
-207.65999972820282
21
-235.92999935150146
31
0
0
LINE
5
382
100
AcDbEntity
8
0
100
AcDbLine
10
-209.60999965667725
20
-235.92999935150146
30
0
11
-209.99999940395355
21
-235.92999935150146
31
0
0
LINE
5
383
100
AcDbEntity
8
0
100
AcDbLine
10
-206.09999984502792
20
-230.46999931335449
30
0
11
-204.53999996185303
21
-230.46999931335449
31
0
0
LINE
5
384
100
AcDbEntity
8
0
100
AcDbLine
10
-204.53999996185303
20
-233.58999729156494
30
0
11
-206.09999984502792
21
-233.58999729156494
31
0
0
ARC
5
385
100
AcDbEntity
8
0
100
AcDbCircle
10
-206.09999984502792
20
-232.03000068664551
30
0
40
1.5600000321865082
210
0
220
-0
230
1
100
AcDbArc
50
90
51
270.00000500895692
0
ARC
5
386
100
AcDbEntity
8
0
100
AcDbCircle
10
-204.53999996185303
20
-232.03000068664551
30
0
40
1.5600000321865082
210
0
220
-0
230
1
100
AcDbArc
50
-89.99999499104311
51
90.00001001791378
0
LINE
5
387
100
AcDbEntity
8
0
100
AcDbLine
10
-202.97999978065491
20
-228.12999725341797
30
0
11
-207.65999972820282
21
-228.12999725341797
31
0
0
LINE
5
388
100
AcDbEntity
8
0
100
AcDbLine
10
-207.65999972820282
20
-228.12999725341797
30
0
11
-207.65999972820282
21
-226.37499809265137
31
0
0
LINE
5
389
100
AcDbEntity
8
0
100
AcDbLine
10
-206.29499971866608
20
-225.00999927520752
30
0
11
-202.97999978065491
21
-225.00999927520752
31
0
0
ARC
5
390
100
AcDbEntity
8
0
100
AcDbCircle
10
-206.29499971866608
20
-226.37499809265137
30
0
40
1.3649998605251312
210
0
220
-0
230
1
100
AcDbArc
50
90
51
180.0000024148365
0
LINE
5
391
100
AcDbEntity
8
0
100
AcDbLine
10
-202.97999978065491
20
-218.76999855041504
30
0
11
-209.99999940395355
21
-218.76999855041504
31
0
0
LINE
5
392
100
AcDbEntity
8
0
100
AcDbLine
10
-207.65999972820282
20
-219.54999923706055
30
0
11
-207.65999972820282
21
-217.21000194549561
31
0
0
LINE
5
393
100
AcDbEntity
8
0
100
AcDbLine
10
-206.09999984502792
20
-211.75000190734863
30
0
11
-204.53999996185303
21
-211.75000190734863
31
0
0
LINE
5
394
100
AcDbEntity
8
0
100
AcDbLine
10
-204.53999996185303
20
-214.86999988555908
30
0
11
-206.09999984502792
21
-214.86999988555908
31
0
0
ARC
5
395
100
AcDbEntity
8
0
100
AcDbCircle
10
-206.09999984502792
20
-213.31000328063965
30
0
40
1.5600000321865082
210
0
220
-0
230
1
100
AcDbArc
50
90
51
270.00000500895692
0
ARC
5
396
100
AcDbEntity
8
0
100
AcDbCircle
10
-204.53999996185303
20
-213.31000328063965
30
0
40
1.5600000321865082
210
0
220
-0
230
1
100
AcDbArc
50
-89.99999499104311
51
90.00001001791378
0
LINE
5
397
100
AcDbEntity
8
0
100
AcDbLine
10
-192.58000075817108
20
-278.83000001311302
30
0
11
-192.58000075817108
21
-277.07500010728836
31
0
0
LINE
5
398
100
AcDbEntity
8
0
100
AcDbLine
10
-194.72500026226044
20
-274.93000030517578
30
0
11
-197.45500028133392
21
-274.93000030517578
31
0
0
LINE
5
399
100
AcDbEntity
8
0
100
AcDbLine
10
-199.59999978542328
20
-277.07500010728836
30
0
11
-199.59999978542328
21
-278.83000001311302
31
0
0
LINE
5
400
100
AcDbEntity
8
0
100
AcDbLine
10
-199.59999978542328
20
-278.83000001311302
30
0
11
-192.58000075817108
21
-278.83000001311302
31
0
0
ARC
5
401
100
AcDbEntity
8
0
100
AcDbCircle
10
-194.72500026226044
20
-277.07500010728836
30
0
40
2.1449999511241913
210
0
220
-0
230
1
100
AcDbArc
50
0
51
90.000010017912885
0
ARC
5
402
100
AcDbEntity
8
0
100
AcDbCircle
10
-197.45500028133392
20
-277.07500010728836
30
0
40
2.1449999511241913
210
0
220
-0
230
1
100
AcDbArc
50
90
51
180.0000024148365
0
LINE
5
403
100
AcDbEntity
8
0
100
AcDbLine
10
-192.58000075817108
20
-272.5900000333786
30
0
11
-197.26000010967255
21
-272.5900000333786
31
0
0
LINE
5
404
100
AcDbEntity
8
0
100
AcDbLine
10
-199.20999944210052
20
-272.5900000333786
30
0
11
-199.59999978542328
21
-272.5900000333786
31
0
0
LINE
5
405
100
AcDbEntity
8
0
100
AcDbLine
10
-190.24000108242035
20
-269.85999941825867
30
0
11
-190.24000108242035
21
-268.49499940872192
31
0
0
LINE
5
406
100
AcDbEntity
8
0
100
AcDbLine
10
-191.6049998998642
20
-267.12999939918518
30
0
11
-197.26000010967255
21
-267.12999939918518
31
0
0
LINE
5
407
100
AcDbEntity
8
0
100
AcDbLine
10
-197.26000010967255
20
-267.12999939918518
30
0
11
-197.26000010967255
21
-268.88499975204468
31
0
0
LINE
5
408
100
AcDbEntity
8
0
100
AcDbLine
10
-195.8950001001358
20
-270.24999976158142
30
0
11
-193.94500076770782
21
-270.24999976158142
31
0
0
LINE
5
409
100
AcDbEntity
8
0
100
AcDbLine
10
-192.58000075817108
20
-268.88499975204468
30
0
11
-192.58000075817108
21
-267.12999939918518
31
0
0
ARC
5
410
100
AcDbEntity
8
0
100
AcDbCircle
10
-191.6049998998642
20
-268.49499940872192
30
0
40
1.3649998605251312
210
0
220
-0
230
1
100
AcDbArc
50
0
51
90.000010017912913
0
ARC
5
411
100
AcDbEntity
8
0
100
AcDbCircle
10
-195.8950001001358
20
-268.88499975204468
30
0
40
1.3649998605251312
210
0
220
-0
230
1
100
AcDbArc
50
180.0000024148365
51
270.00000500895703
0
ARC
5
412
100
AcDbEntity
8
0
100
AcDbCircle
10
-193.94500076770782
20
-268.88499975204468
30
0
40
1.3649998605251312
210
0
220
-0
230
1
100
AcDbArc
50
-89.999994991042954
51
0
0
LINE
5
413
100
AcDbEntity
8
0
100
AcDbLine
10
-192.58000075817108
20
-264.78999972343445
30
0
11
-197.26000010967255
21
-264.78999972343445
31
0
0
LINE
5
414
100
AcDbEntity
8
0
100
AcDbLine
10
-199.20999944210052
20
-264.78999972343445
30
0
11
-199.59999978542328
21
-264.78999972343445
31
0
0
LINE
5
415
100
AcDbEntity
8
0
100
AcDbLine
10
-192.58000075817108
20
-261.6700005531311
30
0
11
-199.59999978542328
21
-261.6700005531311
31
0
0
LINE
5
416
100
AcDbEntity
8
0
100
AcDbLine
10
-197.26000010967255
20
-262.45000004768372
30
0
11
-197.26000010967255
21
-260.11000037193298
31
0
0
LINE
5
417
100
AcDbEntity
8
0
100
AcDbLine
10
-197.26000010967255
20
-257.38000154495239
30
0
11
-197.26000010967255
21
-256.01500034332275
31
0
0
LINE
5
418
100
AcDbEntity
8
0
100
AcDbLine
10
-195.8950001001358
20
-254.65000152587891
30
0
11
-192.58000075817108
21
-254.65000152587891
31
0
0
LINE
5
419
100
AcDbEntity
8
0
100
AcDbLine
10
-192.58000075817108
20
-254.65000152587891
30
0
11
-192.58000075817108
21
-256.60000085830688
31
0
0
LINE
5
420
100
AcDbEntity
8
0
100
AcDbLine
10
-194.92000043392181
20
-256.60000085830688
30
0
11
-194.92000043392181
21
-254.65000152587891
31
0
0
ARC
5
421
100
AcDbEntity
8
0
100
AcDbCircle
10
-195.8950001001358
20
-256.01500034332275
30
0
40
1.3649998605251312
210
0
220
-0
230
1
100
AcDbArc
50
90
51
180.0000024148365
0
ARC
5
422
100
AcDbEntity
8
0
100
AcDbCircle
10
-193.75000059604645
20
-256.60000085830688
30
0
40
1.1699999868869781
210
0
220
-0
230
1
100
AcDbArc
50
-179.99999758516347
51
0
0
LINE
5
423
100
AcDbEntity
8
0
100
AcDbLine
10
-193.36000025272369
20
-252.30999946594238
30
0
11
-199.59999978542328
21
-252.30999946594238
31
0
0
ARC
5
424
100
AcDbEntity
8
0
100
AcDbCircle
10
-193.36000025272369
20
-251.53000116348267
30
0
40
0.78000001609325409
210
0
220
-0
230
1
100
AcDbArc
50
-89.999994991044176
51
0
0
LINE
5
425
100
AcDbEntity
8
0
100
AcDbLine
10
-192.58000075817108
20
-246.0699987411499
30
0
11
-199.59999978542328
21
-246.0699987411499
31
0
0
LINE
5
426
100
AcDbEntity
8
0
100
AcDbLine
10
-199.59999978542328
20
-246.0699987411499
30
0
11
-199.59999978542328
21
-242.95000076293945
31
0
0
LINE
5
427
100
AcDbEntity
8
0
100
AcDbLine
10
-196.48000061511993
20
-246.0699987411499
30
0
11
-196.48000061511993
21
-242.95000076293945
31
0
0
LINE
5
428
100
AcDbEntity
8
0
100
AcDbLine
10
-197.26000010967255
20
-240.22000074386597
30
0
11
-197.26000010967255
21
-238.85499954223633
31
0
0
LINE
5
429
100
AcDbEntity
8
0
100
AcDbLine
10
-195.8950001001358
20
-237.49000072479248
30
0
11
-192.58000075817108
21
-237.49000072479248
31
0
0
LINE
5
430
100
AcDbEntity
8
0
100
AcDbLine
10
-192.58000075817108
20
-237.49000072479248
30
0
11
-192.58000075817108
21
-239.43999767303467
31
0
0
LINE
5
431
100
AcDbEntity
8
0
100
AcDbLine
10
-194.92000043392181
20
-239.43999767303467
30
0
11
-194.92000043392181
21
-237.49000072479248
31
0
0
ARC
5
432
100
AcDbEntity
8
0
100
AcDbCircle
10
-195.8950001001358
20
-238.85499954223633
30
0
40
1.3649998605251312
210
0
220
-0
230
1
100
AcDbArc
50
90
51
180.0000024148365
0
ARC
5
433
100
AcDbEntity
8
0
100
AcDbCircle
10
-193.75000059604645
20
-239.43999767303467
30
0
40
1.1699999868869781
210
0
220
-0
230
1
100
AcDbArc
50
-179.99999758516347
51
0
0
LINE
5
434
100
AcDbEntity
8
0
100
AcDbLine
10
-199.59999978542328
20
-235.14999866485596
30
0
11
-192.58000075817108
21
-235.14999866485596
31
0
0
LINE
5
435
100
AcDbEntity
8
0
100
AcDbLine
10
-192.58000075817108
20
-235.14999866485596
30
0
11
-192.58000075817108
21
-233.39499950408936
31
0
0
LINE
5
436
100
AcDbEntity
8
0
100
AcDbLine
10
-193.94500076770782
20
-232.03000068664551
30
0
11
-195.8950001001358
21
-232.03000068664551
31
0
0
LINE
5
437
100
AcDbEntity
8
0
100
AcDbLine
10
-197.26000010967255
20
-233.39499950408936
30
0
11
-197.26000010967255
21
-235.14999866485596
31
0
0
ARC
5
438
100
AcDbEntity
8
0
100
AcDbCircle
10
-193.94500076770782
20
-233.39499950408936
30
0
40
1.3649998605251312
210
0
220
-0
230
1
100
AcDbArc
50
0
51
90.000010017912913
0
ARC
5
439
100
AcDbEntity
8
0
100
AcDbCircle
10
-195.8950001001358
20
-233.39499950408936
30
0
40
1.3649998605251312
210
0
220
-0
230
1
100
AcDbArc
50
90
51
180.0000024148365
0
LINE
5
440
100
AcDbEntity
8
0
100
AcDbLine
10
-192.58000075817108
20
-229.68999862670898
30
0
11
-197.26000010967255
21
-229.68999862670898
31
0
0
LINE
5
441
100
AcDbEntity
8
0
100
AcDbLine
10
-197.26000010967255
20
-229.68999862670898
30
0
11
-197.26000010967255
21
-227.35000133514404
31
0
0
LINE
5
442
100
AcDbEntity
8
0
100
AcDbLine
10
-197.26000010967255
20
-227.35000133514404
30
0
11
-196.48000061511993
21
-227.35000133514404
31
0
0
LINE
5
443
100
AcDbEntity
8
0
100
AcDbLine
10
-192.58000075817108
20
-225.00999927520752
30
0
11
-197.26000010967255
21
-225.00999927520752
31
0
0
LINE
5
444
100
AcDbEntity
8
0
100
AcDbLine
10
-199.20999944210052
20
-225.00999927520752
30
0
11
-199.59999978542328
21
-225.00999927520752
31
0
0
LINE
5
445
100
AcDbEntity
8
0
100
AcDbLine
10
-192.58000075817108
20
-220.32999992370605
30
0
11
-192.58000075817108
21
-221.30499839782715
31
0
0
LINE
5
446
100
AcDbEntity
8
0
100
AcDbLine
10
-193.94500076770782
20
-222.669997215271
30
0
11
-195.8950001001358
21
-222.669997215271
31
0
0
LINE
5
447
100
AcDbEntity
8
0
100
AcDbLine
10
-197.26000010967255
20
-221.30499839782715
30
0
11
-197.26000010967255
21
-220.32999992370605
31
0
0
ARC
5
448
100
AcDbEntity
8
0
100
AcDbCircle
10
-193.94500076770782
20
-221.30499839782715
30
0
40
1.3649998605251312
210
0
220
-0
230
1
100
AcDbArc
50
-89.999994991042954
51
0
0
ARC
5
449
100
AcDbEntity
8
0
100
AcDbCircle
10
-195.8950001001358
20
-221.30499839782715
30
0
40
1.3649998605251312
210
0
220
-0
230
1
100
AcDbArc
50
180.0000024148365
51
270.00000500895703
0
LINE
5
450
100
AcDbEntity
8
0
100
AcDbLine
10
-197.26000010967255
20
-217.59999752044678
30
0
11
-197.26000010967255
21
-216.23499870300293
31
0
0
LINE
5
451
100
AcDbEntity
8
0
100
AcDbLine
10
-195.8950001001358
20
-214.86999988555908
30
0
11
-192.58000075817108
21
-214.86999988555908
31
0
0
LINE
5
452
100
AcDbEntity
8
0
100
AcDbLine
10
-192.58000075817108
20
-214.86999988555908
30
0
11
-192.58000075817108
21
-216.81999683380127
31
0
0
LINE
5
453
100
AcDbEntity
8
0
100
AcDbLine
10
-194.92000043392181
20
-216.81999683380127
30
0
11
-194.92000043392181
21
-214.86999988555908
31
0
0
ARC
5
454
100
AcDbEntity
8
0
100
AcDbCircle
10
-195.8950001001358
20
-216.23499870300293
30
0
40
1.3649998605251312
210
0
220
-0
230
1
100
AcDbArc
50
90
51
180.0000024148365
0
ARC
5
455
100
AcDbEntity
8
0
100
AcDbCircle
10
-193.75000059604645
20
-216.81999683380127
30
0
40
1.1699999868869781
210
0
220
-0
230
1
100
AcDbArc
50
-179.99999758516347
51
0
0
LINE
5
456
100
AcDbEntity
8
0
100
AcDbLine
10
-192.58000075817108
20
-211.74999713897705
30
0
11
-199.59999978542328
21
-211.74999713897705
31
0
0
LINE
5
457
100
AcDbEntity
8
0
100
AcDbLine
10
-197.26000010967255
20
-212.52999782562256
30
0
11
-197.26000010967255
21
-210.19000053405762
31
0
0
LINE
5
458
100
AcDbEntity
8
0
100
AcDbLine
10
-192.58000075817108
20
-207.84999847412109
30
0
11
-197.26000010967255
21
-207.84999847412109
31
0
0
LINE
5
459
100
AcDbEntity
8
0
100
AcDbLine
10
-199.20999944210052
20
-207.84999847412109
30
0
11
-199.59999978542328
21
-207.84999847412109
31
0
0
LINE
5
460
100
AcDbEntity
8
0
100
AcDbLine
10
-195.69999992847443
20
-202.38999843597412
30
0
11
-194.13999974727631
21
-202.38999843597412
31
0
0
LINE
5
461
100
AcDbEntity
8
0
100
AcDbLine
10
-194.13999974727631
20
-205.50999641418457
30
0
11
-195.69999992847443
21
-205.50999641418457
31
0
0
ARC
5
462
100
AcDbEntity
8
0
100
AcDbCircle
10
-195.69999992847443
20
-203.94999980926514
30
0
40
1.5600000321865082
210
0
220
-0
230
1
100
AcDbArc
50
90
51
270.00000500895692
0
ARC
5
463
100
AcDbEntity
8
0
100
AcDbCircle
10
-194.13999974727631
20
-203.94999980926514
30
0
40
1.5600000321865082
210
0
220
-0
230
1
100
AcDbArc
50
-89.99999499104311
51
90.00001001791378
0
LINE
5
464
100
AcDbEntity
8
0
100
AcDbLine
10
-192.58000075817108
20
-200.0499963760376
30
0
11
-197.26000010967255
21
-200.0499963760376
31
0
0
LINE
5
465
100
AcDbEntity
8
0
100
AcDbLine
10
-197.26000010967255
20
-200.0499963760376
30
0
11
-197.26000010967255
21
-198.29500198364258
31
0
0
LINE
5
466
100
AcDbEntity
8
0
100
AcDbLine
10
-195.8950001001358
20
-196.92999839782715
30
0
11
-192.58000075817108
21
-196.92999839782715
31
0
0
ARC
5
467
100
AcDbEntity
8
0
100
AcDbCircle
10
-195.8950001001358
20
-198.29500198364258
30
0
40
1.3649998605251312
210
0
220
-0
230
1
100
AcDbArc
50
90
51
180.0000024148365
0
LINE
5
468
100
AcDbEntity
8
0
100
AcDbLine
10
-183.2446163892746
20
-279.41500000655651
30
0
11
-186.7546159029007
21
-279.41500000655651
31
0
0
LINE
5
469
100
AcDbEntity
8
0
100
AcDbLine
10
-186.7546159029007
20
-279.41500000655651
30
0
11
-186.7546159029007
21
-278.43999996781349
31
0
0
LINE
5
470
100
AcDbEntity
8
0
100
AcDbLine
10
-184.80461597442627
20
-278.43999996781349
30
0
11
-184.80461597442627
21
-279.41500000655651
31
0
0
ARC
5
471
100
AcDbEntity
8
0
100
AcDbCircle
10
-185.77961593866348
20
-278.43999996781349
30
0
40
0.97499996423721313
210
0
220
-0
230
1
100
AcDbArc
50
0
51
179.99999203652959
0
LINE
5
472
100
AcDbEntity
8
0
100
AcDbLine
10
-183.2446163892746
20
-276.2950000166893
30
0
11
-186.7546159029007
21
-276.2950000166893
31
0
0
LINE
5
473
100
AcDbEntity
8
0
100
AcDbLine
10
-185.19461631774902
20
-276.2950000166893
30
0
11
-185.19461631774902
21
-274.34499979019165
31
0
0
LINE
5
474
100
AcDbEntity
8
0
100
AcDbLine
10
-186.7546159029007
20
-274.34499979019165
30
0
11
-183.2446163892746
21
-274.34499979019165
31
0
0
LINE
5
475
100
AcDbEntity
8
0
100
AcDbLine
10
-186.7546159029007
20
-273.17499995231628
30
0
11
-184.99961614608765
21
-272.00500011444092
31
0
0
LINE
5
476
100
AcDbEntity
8
0
100
AcDbLine
10
-184.99961614608765
20
-272.00500011444092
30
0
11
-186.7546159029007
21
-270.83500027656555
31
0
0
LINE
5
477
100
AcDbEntity
8
0
100
AcDbLine
10
-184.99961614608765
20
-272.00500011444092
30
0
11
-183.2446163892746
21
-272.00500011444092
31
0
0
LINE
5
478
100
AcDbEntity
8
0
100
AcDbLine
10
-185.272616147995
20
-269.235999584198
30
0
11
-184.7266161441803
21
-268.1439995765686
31
0
0
ARC
5
479
100
AcDbEntity
8
0
100
AcDbCircle
10
-184.1004604101181
20
-268.90883088111877
30
0
40
2.6542627811431885
210
0
220
-0
230
1
100
AcDbArc
50
157.89457336897368
51
179.48556631657164
0
ARC
5
480
100
AcDbEntity
8
0
100
AcDbCircle
10
-185.97126811742783
20
-268.88169765472412
30
0
40
0.78335493803024292
210
0
220
-0
230
1
100
AcDbArc
50
180.2415658048557
51
333.10938199636342
0
ARC
5
481
100
AcDbEntity
8
0
100
AcDbCircle
10
-184.02796387672424
20
-268.49830269813538
30
0
40
0.78335493803024292
210
0
220
-0
230
1
100
AcDbArc
50
0.24157081381136078
51
153.10937015722149
0
ARC
5
482
100
AcDbEntity
8
0
100
AcDbCircle
10
-185.46190947294235
20
-268.40590238571167
30
0
40
2.2190825641155238
210
0
220
-0
230
1
100
AcDbArc
50
325.43118385975998
51
357.69890995186825
0
LINE
5
483
100
AcDbEntity
8
0
100
AcDbLine
10
-185.272616147995
20
-264.55599904060364
30
0
11
-184.7266161441803
21
-263.46399903297424
31
0
0
ARC
5
484
100
AcDbEntity
8
0
100
AcDbCircle
10
-184.1004604101181
20
-264.22883033752441
30
0
40
2.6542627811431885
210
0
220
-0
230
1
100
AcDbArc
50
157.89457336897368
51
179.48556631657164
0
ARC
5
485
100
AcDbEntity
8
0
100
AcDbCircle
10
-185.97126811742783
20
-264.20169591903687
30
0
40
0.78335493803024292
210
0
220
-0
230
1
100
AcDbArc
50
180.2415658048557
51
333.10938199636342
0
ARC
5
486
100
AcDbEntity
8
0
100
AcDbCircle
10
-184.02796387672424
20
-263.81830215454102
30
0
40
0.78335493803024292
210
0
220
-0
230
1
100
AcDbArc
50
0.24157081381136078
51
153.10937015722149
0
ARC
5
487
100
AcDbEntity
8
0
100
AcDbCircle
10
-185.46190947294235
20
-263.72590184211731
30
0
40
2.2190825641155238
210
0
220
-0
230
1
100
AcDbArc
50
325.43118385975998
51
357.69890995186825
0
LINE
5
488
100
AcDbEntity
8
0
100
AcDbLine
10
-184.41461622714996
20
-261.86499834060669
30
0
11
-184.41461622714996
21
-260.30499935150146
31
0
0
LINE
5
489
100
AcDbEntity
8
0
100
AcDbLine
10
-183.2446163892746
20
-258.35500001907349
30
0
11
-186.7546159029007
21
-258.35500001907349
31
0
0
LINE
5
490
100
AcDbEntity
8
0
100
AcDbLine
10
-186.7546159029007
20
-258.35500001907349
30
0
11
-185.97461611032486
21
-259.1349983215332
31
0
0
LINE
5
491
100
AcDbEntity
8
0
100
AcDbLine
10
-185.56511610746384
20
-255.74199914932251
30
0
11
-183.2446163892746
21
-257.18499898910522
31
0
0
LINE
5
492
100
AcDbEntity
8
0
100
AcDbLine
10
-183.2446163892746
20
-257.18499898910522
30
0
11
-183.2446163892746
21
-255.625
31
0
0
ARC
5
493
100
AcDbEntity
8
0
100
AcDbCircle
10
-185.95220953226089
20
-256.41257047653198
30
0
40
0.8024422824382782
210
0
220
-0
230
1
100
AcDbArc
50
179.45947499394092
51
254.28031097379446
0
ARC
5
494
100
AcDbEntity
8
0
100
AcDbCircle
10
-185.97707986831665
20
-256.40143871307373
30
0
40
0.77754423022270203
210
0
220
-0
230
1
100
AcDbArc
50
58.006229153037395
51
180.26234324030824
0
LINE
5
495
100
AcDbEntity
8
0
100
AcDbLine
10
-157.77874976396561
20
-279.56124994903803
30
0
11
-155.14624923467636
21
-277.80624985694885
31
0
0
LINE
5
496
100
AcDbEntity
8
0
100
AcDbLine
10
-157.77874976396561
20
-277.80624985694885
30
0
11
-155.14624923467636
21
-279.56124994903803
31
0
0
LINE
5
497
100
AcDbEntity
8
0
100
AcDbLine
10
-155.14624923467636
20
-276.9287496805191
30
0
11
-157.77874976396561
21
-276.9287496805191
31
0
0
LINE
5
498
100
AcDbEntity
8
0
100
AcDbLine
10
-157.77874976396561
20
-276.9287496805191
30
0
11
-157.77874976396561
21
-276.19749963283539
31
0
0
LINE
5
499
100
AcDbEntity
8
0
100
AcDbLine
10
-156.31624966859818
20
-276.19749963283539
30
0
11
-156.31624966859818
21
-276.9287496805191
31
0
0
ARC
5
500
100
AcDbEntity
8
0
100
AcDbCircle
10
-157.04749971628189
20
-276.19749963283539
30
0
40
0.73125004768371582
210
0
220
-0
230
1
100
AcDbArc
50
0
51
179.99999203652959
0
LINE
5
501
100
AcDbEntity
8
0
100
AcDbLine
10
-156.02375000715256
20
-274.58875000476837
30
0
11
-156.02375000715256
21
-273.41874957084656
31
0
0
LINE
5
502
100
AcDbEntity
8
0
100
AcDbLine
10
-155.14624923467636
20
-272.54124999046326
30
0
11
-157.77874976396561
21
-272.54124999046326
31
0
0
LINE
5
503
100
AcDbEntity
8
0
100
AcDbLine
10
-157.77874976396561
20
-272.54124999046326
30
0
11
-157.77874976396561
21
-271.80999994277954
31
0
0
LINE
5
504
100
AcDbEntity
8
0
100
AcDbLine
10
-156.31624966859818
20
-271.80999994277954
30
0
11
-156.31624966859818
21
-272.54124999046326
31
0
0
ARC
5
505
100
AcDbEntity
8
0
100
AcDbCircle
10
-157.04749971628189
20
-271.80999994277954
30
0
40
0.73125004768371582
210
0
220
-0
230
1
100
AcDbArc
50
0
51
179.99999203652959
0
LINE
5
506
100
AcDbEntity
8
0
100
AcDbLine
10
-157.77874976396561
20
-270.20124971866608
30
0
11
-155.14624923467636
21
-268.44624996185303
31
0
0
LINE
5
507
100
AcDbEntity
8
0
100
AcDbLine
10
-157.77874976396561
20
-268.44624996185303
30
0
11
-155.14624923467636
21
-270.20124971866608
31
0
0
LINE
5
508
100
AcDbEntity
8
0
100
AcDbLine
10
-156.02375000715256
20
-267.56874918937683
30
0
11
-156.02375000715256
21
-266.39874935150146
31
0
0
LINE
5
509
100
AcDbEntity
8
0
100
AcDbLine
10
-155.14624923467636
20
-265.52124857902527
30
0
11
-156.90124958753586
21
-265.52124857902527
31
0
0
LINE
5
510
100
AcDbEntity
8
0
100
AcDbLine
10
-157.63249963521957
20
-265.52124857902527
30
0
11
-157.77874976396561
21
-265.52124857902527
31
0
0
LINE
5
511
100
AcDbEntity
8
0
100
AcDbLine
10
-155.14624923467636
20
-264.64374899864197
30
0
11
-157.77874976396561
21
-264.64374899864197
31
0
0
LINE
5
512
100
AcDbEntity
8
0
100
AcDbLine
10
-156.90124958753586
20
-264.64374899864197
30
0
11
-156.90124958753586
21
-263.98562431335449
31
0
0
LINE
5
513
100
AcDbEntity
8
0
100
AcDbLine
10
-156.38937443494797
20
-263.4737491607666
30
0
11
-155.14624923467636
21
-263.4737491607666
31
0
0
ARC
5
514
100
AcDbEntity
8
0
100
AcDbCircle
10
-156.38937443494797
20
-263.98562431335449
30
0
40
0.51187504082918167
210
0
220
-0
230
1
100
AcDbArc
50
90
51
180.0000024148365
0
ENDSEC
0
SECTION
2
OBJECTS
0
DICTIONARY
5
C
100
AcDbDictionary
3
ACAD_GROUP
350
D
3
ACAD_MLINESTYLE
350
17
0
DICTIONARY
5
D
100
AcDbDictionary
0
DICTIONARY
5
1A
330
C
100
AcDbDictionary
0
DICTIONARY
5
17
100
AcDbDictionary
0
ENDSEC
0
EOF
