0
SECTION
2
HEADER
9
$INSUNITS
70
4
9
$ACADVER
1
AC1014
9
$HANDSEED
5
FFFF
0
ENDSEC
0
SECTION
2
TABLES
0
TABLE
2
VPORT
5
8
100
AcDbSymbolTable
0
ENDTAB
0
TABLE
2
LTYPE
5
5
100
AcDbSymbolTable
0
LTYPE
5
14
100
AcDbSymbolTableRecord
100
AcDbLinetypeTableRecord
2
BYBLOCK
70
0
0
LTYPE
5
15
100
AcDbSymbolTableRecord
100
AcDbLinetypeTableRecord
2
BYLAYER
70
0
0
LTYPE
5
16
100
AcDbSymbolTableRecord
100
AcDbLinetypeTableRecord
2
DASHED
70
0
3
Dashed __ __ __ __ __ __ __ __ __ __ __ __ __ _
72
65
73
2
40
0.75
49
0.5
74
0
49
-0.25
74
0
0
ENDTAB
0
TABLE
2
LAYER
5
2
100
AcDbSymbolTable
70
2
0
LAYER
5
50
100
AcDbSymbolTableRecord
100
AcDbLayerTableRecord
2
0
70
0
62
7
6
CONTINUOUS
0
ENDTAB
0
TABLE
2
STYLE
5
3
100
AcDbSymbolTable
70
1
0
STYLE
5
11
100
AcDbSymbolTableRecord
100
AcDbTextStyleTableRecord
2
STANDARD
70
0
0
ENDTAB
0
TABLE
2
VIEW
5
6
100
AcDbSymbolTable
70
0
0
ENDTAB
0
TABLE
2
UCS
5
7
100
AcDbSymbolTable
70
0
0
ENDTAB
0
TABLE
2
APPID
5
9
100
AcDbSymbolTable
70
2
0
APPID
5
12
100
AcDbSymbolTableRecord
100
AcDbRegAppTableRecord
2
ACAD
70
0
0
ENDTAB
0
TABLE
2
DIMSTYLE
5
A
100
AcDbSymbolTable
70
1
0
ENDTAB
0
TABLE
2
BLOCK_RECORD
5
1
100
AcDbSymbolTable
70
1
0
BLOCK_RECORD
5
1F
100
AcDbSymbolTableRecord
100
AcDbBlockTableRecord
2
*MODEL_SPACE
0
BLOCK_RECORD
5
1B
100
AcDbSymbolTableRecord
100
AcDbBlockTableRecord
2
*PAPER_SPACE
0
ENDTAB
0
ENDSEC
0
SECTION
2
BLOCKS
0
BLOCK
5
20
100
AcDbEntity
100
AcDbBlockBegin
2
*MODEL_SPACE
0
ENDBLK
5
21
100
AcDbEntity
100
AcDbBlockEnd
0
BLOCK
5
1C
100
AcDbEntity
100
AcDbBlockBegin
2
*PAPER_SPACE
0
ENDBLK
5
1D
100
AcDbEntity
100
AcDbBlockEnd
0
ENDSEC
0
SECTION
2
ENTITIES
0
LINE
5
100
100
AcDbEntity
8
0
100
AcDbLine
10
35.000000000027853
20
35.000000000009251
30
0
11
-35.00000000000928
21
35.000000000009294
31
0
0
LINE
5
101
100
AcDbEntity
8
0
100
AcDbLine
10
-35.00000000000928
20
35.000000000009294
30
0
11
-35.000000000009294
21
-34.999999999990706
31
0
0
LINE
5
102
100
AcDbEntity
8
0
100
AcDbLine
10
-35.000000000009294
20
-34.999999999990706
30
0
11
34.999999999990706
21
-34.999999999990706
31
0
0
LINE
5
103
100
AcDbEntity
8
0
100
AcDbLine
10
34.999999999990706
20
-34.999999999990706
30
0
11
35.000000000027853
21
35.000000000009251
31
0
0
LINE
5
104
100
AcDbEntity
8
0
100
AcDbLine
10
-35.00000000000928
20
35.000000000009294
30
0
11
35.000000000027853
21
35.000000000009251
31
0
0
LINE
5
105
100
AcDbEntity
8
0
100
AcDbLine
10
35.000000000027853
20
35.000000000009251
30
0
11
35.00000000002791
21
105.00000000000945
31
0
0
LWPOLYLINE
5
106
100
AcDbEntity
8
0
100
AcDbPolyline
90
4
70
1
43
0.0
10
35.00000000002791
20
105.00000000000945
10
-35.000000000009265
20
105.00000000000941
10
35.00000000002791
20
105.00000000000945
10
35.000000000027818
20
175.00000000000944
0
LINE
5
107
100
AcDbEntity
8
0
100
AcDbLine
10
-35.000000000009265
20
105.00000000000941
30
0
11
-35.00000000000928
21
35.000000000009294
31
0
0
LINE
5
108
100
AcDbEntity
8
0
100
AcDbLine
10
35.000000000027853
20
35.000000000009251
30
0
11
34.999999999990706
21
-34.999999999990706
31
0
0
LWPOLYLINE
5
109
100
AcDbEntity
8
0
100
AcDbPolyline
90
3
70
1
43
0.0
10
34.999999999990706
20
-34.999999999990706
10
105.00000000001847
20
-34.999999999990678
10
70.000000000004619
20
-95.62177826492541
0
LINE
5
110
100
AcDbEntity
8
0
100
AcDbLine
10
105.00000000001847
20
-34.999999999990678
30
0
11
105.00000000004175
21
35.000000000027818
31
0
0
LWPOLYLINE
5
111
100
AcDbEntity
8
0
100
AcDbPolyline
90
3
70
1
43
0.0
10
105.00000000004175
20
35.000000000027818
10
35.000000000027853
20
35.000000000009251
10
70.000000000018787
20
95.621778264941241
0
LWPOLYLINE
5
112
100
AcDbEntity
8
0
100
AcDbPolyline
90
4
70
1
43
0.0
10
34.999999999990706
20
-34.999999999990706
10
-35.000000000009294
20
-34.999999999990706
10
-35.00000000000928
20
-105.00000000000101
10
34.999999999982528
20
-104.99999999999069
0
LWPOLYLINE
5
113
100
AcDbEntity
8
0
100
AcDbPolyline
90
7
70
1
43
0.0
10
-35.00000000000928
20
35.000000000009294
10
-35.000000000009294
20
-34.999999999990706
10
-104.99999999999656
20
-34.99999999999082
10
-70.000000000002814
20
-95.621778264890452
10
-35.000000000009294
20
-34.999999999990706
10
-104.99999999999656
20
-34.99999999999082
10
-105.00000000004047
20
34.999999999983899
0
LWPOLYLINE
5
114
100
AcDbEntity
8
0
100
AcDbPolyline
90
3
70
1
43
0.0
10
-105.00000000004047
20
34.999999999983899
10
-35.00000000000928
20
35.000000000009294
10
-70.000000000046825
20
95.621778264934321
0
LINE
5
115
100
AcDbEntity
8
0
100
AcDbLine
10
35.000000000027853
20
35.000000000009251
30
0
11
105.00000000004175
21
35.000000000027818
31
0
0
LINE
5
116
100
AcDbEntity
8
0
100
AcDbLine
10
105.00000000001847
20
-34.999999999990678
30
0
11
34.999999999990706
21
-34.999999999990706
31
0
0
LINE
5
117
100
AcDbEntity
8
0
100
AcDbLine
10
35.000000000027818
20
175.00000000000944
30
0
11
-35.000000000009315
21
175.00000000000938
31
0
0
LWPOLYLINE
5
118
100
AcDbEntity
8
0
100
AcDbPolyline
90
2
70
1
43
0.0
10
-35.000000000009315
20
175.00000000000938
10
-35.000000000009265
20
105.00000000000941
0
LINE
5
119
100
AcDbEntity
8
0
100
AcDbLine
10
-35.000000000009265
20
105.00000000000941
30
0
11
-105.00000000000844
21
105.00000000000938
31
0
0
LWPOLYLINE
5
120
100
AcDbEntity
8
0
100
AcDbPolyline
90
4
70
1
43
0.0
10
-105.00000000000844
20
105.00000000000938
10
-105.00000000000932
20
175.00000000000932
10
-175.00000000000938
20
175.00000000000915
10
-175.00000000000932
20
105.00000000000875
0
LINE
5
121
100
AcDbEntity
8
0
100
AcDbLine
10
-105.00000000000932
20
175.00000000000932
30
0
11
-35.000000000009315
21
175.00000000000938
31
0
0
LINE
5
122
100
AcDbEntity
8
0
100
AcDbLine
10
-105.00000000000932
20
175.00000000000932
30
0
11
-105.00000000000844
21
105.00000000000938
31
0
0
LINE
5
123
100
AcDbEntity
8
0
100
AcDbLine
10
35.00000000002791
20
105.00000000000945
30
0
11
105.00000000002788
21
105.00000000000949
31
0
0
LINE
5
124
100
AcDbEntity
8
0
100
AcDbLine
10
105.00000000002788
20
105.00000000000949
30
0
11
105.00000000002785
21
175.00000000000952
31
0
0
LINE
5
125
100
AcDbEntity
8
0
100
AcDbLine
10
105.00000000002785
20
175.00000000000952
30
0
11
35.000000000027818
21
175.00000000000944
31
0
0
LWPOLYLINE
5
126
100
AcDbEntity
8
0
100
AcDbPolyline
90
6
70
1
43
0.0
10
174.99999999998261
20
-174.99999999999076
10
104.99999999998263
20
-174.99999999999073
10
34.999999999982549
20
-174.99999999999068
10
34.999999999982528
20
-104.99999999999069
10
104.99999999998269
20
-104.99999999999068
10
174.99999999998261
20
-104.99999999999068
0
LINE
5
127
100
AcDbEntity
8
0
100
AcDbLine
10
104.99999999998269
20
-104.99999999999068
30
0
11
104.99999999998263
21
-174.99999999999073
31
0
0
LINE
5
128
100
AcDbEntity
8
0
100
AcDbLine
10
-35.00000000000928
20
-174.99999999999011
30
0
11
34.999999999982549
21
-174.99999999999068
31
0
0
LWPOLYLINE
5
129
100
AcDbEntity
8
0
100
AcDbPolyline
90
4
70
1
43
0.0
10
-35.00000000000928
20
-174.99999999999011
10
-35.00000000000928
20
-105.00000000000101
10
-105.00000000001717
20
-104.99999999999861
10
-105.00000000000927
20
-174.99999999999787
0
LWPOLYLINE
5
130
100
AcDbEntity
8
0
100
AcDbPolyline
90
32
70
1
43
0.0
10
35.299999999986021
20
-36.11961524225336
10
70.000000000004604
20
-96.221778264925405
10
105.30000000001984
20
-35.080384757717617
10
105.30000000001982
20
35.080384757790284
10
69.999999999994202
20
96.221778264950075
10
35.300000000027893
20
36.119615242302984
10
35.3000000000279
20
104.7000000000094
10
105.30000000002789
20
104.69999999996149
10
105.30000000002788
20
175.30000000000945
10
25.887697254760447
20
175.30000000000939
10
-60.748393876216142
20
175.30000000000933
10
-28.189591882316467
20
175.30000000000683
10
-175.3000000000111
20
175.30000000001093
10
-175.3000000000111
20
104.70000000000987
10
-77.244777708473151
20
104.70000000000672
10
-35.30000000000927
20
104.70000000001619
10
-35.300000000009284
20
36.119615242279906
10
-70.000000000002714
20
96.221778264908721
10
-105.30000000000933
20
35.080384757715976
10
-105.29999999999649
20
-35.08038475772014
10
-70.000000000002856
20
-96.221778264890276
10
-35.300000000009312
20
-36.119615242261204
10
-35.300000000009298
20
-104.70000000000256
10
-105.30000000001718
20
-104.7000000000105
10
-105.30000000000913
20
-175.2999999999997
10
-25.00000000000658
20
-175.29999999999069
10
25.000001734758168
20
-175.29999999999171
10
74.999997435567863
20
-175.29999999999163
10
175.29999999998253
20
-175.2999999999916
10
175.29999999998253
20
-104.69999999999064
10
74.993566294207028
20
-104.69999999999064
10
35.29999999998256
20
-104.69999999999068
0
ENDSEC
0
SECTION
2
OBJECTS
0
DICTIONARY
5
C
100
AcDbDictionary
3
ACAD_GROUP
350
D
3
ACAD_MLINESTYLE
350
17
0
DICTIONARY
5
D
100
AcDbDictionary
0
DICTIONARY
5
1A
330
C
100
AcDbDictionary
0
DICTIONARY
5
17
100
AcDbDictionary
0
ENDSEC
0
EOF
